solid Exported from Blender-3.3.3
facet normal 0.000000 1.000000 0.000000
outer loop
vertex -12.000000 7.000000 -2.500000
vertex -12.000000 7.000000 2.500000
vertex 12.000000 7.000000 2.500000
endloop
endfacet
facet normal 0.000000 1.000000 0.000000
outer loop
vertex -12.000000 7.000000 -2.500000
vertex 12.000000 7.000000 2.500000
vertex 12.000000 7.000000 -2.500000
endloop
endfacet
facet normal 0.000000 -1.000000 0.000000
outer loop
vertex 12.000000 -7.000000 -2.500000
vertex 12.000000 -7.000000 2.500000
vertex -12.000000 -7.000000 2.500000
endloop
endfacet
facet normal 0.000000 -1.000000 0.000000
outer loop
vertex 12.000000 -7.000000 -2.500000
vertex -12.000000 -7.000000 2.500000
vertex -12.000000 -7.000000 -2.500000
endloop
endfacet
facet normal 0.000000 0.000000 -1.000000
outer loop
vertex -12.000000 7.000000 -2.500000
vertex 12.000000 7.000000 -2.500000
vertex 12.000000 -7.000000 -2.500000
endloop
endfacet
facet normal 0.000000 0.000000 -1.000000
outer loop
vertex -12.000000 7.000000 -2.500000
vertex 12.000000 -7.000000 -2.500000
vertex -12.000000 -7.000000 -2.500000
endloop
endfacet
facet normal 0.000000 0.000000 1.000000
outer loop
vertex 12.000000 7.000000 2.500000
vertex -12.000000 7.000000 2.500000
vertex -12.000000 -7.000000 2.500000
endloop
endfacet
facet normal 0.000000 0.000000 1.000000
outer loop
vertex 12.000000 7.000000 2.500000
vertex -12.000000 -7.000000 2.500000
vertex 12.000000 -7.000000 2.500000
endloop
endfacet
facet normal -1.000000 0.000000 0.000000
outer loop
vertex -12.000000 -5.414011 -0.473865
vertex -12.000000 5.414011 -0.473865
vertex -12.000000 7.000000 -2.500000
endloop
endfacet
facet normal -1.000000 0.000000 0.000000
outer loop
vertex -12.000000 -5.414011 -0.473865
vertex -12.000000 7.000000 -2.500000
vertex -12.000000 -7.000000 -2.500000
endloop
endfacet
facet normal -1.000000 -0.000003 0.000000
outer loop
vertex -12.000000 -5.414011 0.473865
vertex -12.000000 -5.414011 -0.473865
vertex -12.000000 -7.000000 -2.500000
endloop
endfacet
facet normal -1.000000 0.000000 0.000000
outer loop
vertex -12.000000 -5.414011 0.473865
vertex -12.000000 -7.000000 -2.500000
vertex -12.000000 -7.000000 2.500000
endloop
endfacet
facet normal -1.000000 0.000000 0.000000
outer loop
vertex -12.000000 5.414011 0.473865
vertex -12.000000 -5.414011 0.473865
vertex -12.000000 -7.000000 2.500000
endloop
endfacet
facet normal -1.000000 0.000000 0.000000
outer loop
vertex -12.000000 5.414011 0.473865
vertex -12.000000 -7.000000 2.500000
vertex -12.000000 7.000000 2.500000
endloop
endfacet
facet normal -1.000000 0.000003 0.000000
outer loop
vertex -12.000000 5.414011 -0.473865
vertex -12.000000 5.414011 0.473865
vertex -12.000000 7.000000 2.500000
endloop
endfacet
facet normal -1.000000 0.000000 0.000000
outer loop
vertex -12.000000 5.414011 -0.473865
vertex -12.000000 7.000000 2.500000
vertex -12.000000 7.000000 -2.500000
endloop
endfacet
endsolid Exported from Blender-3.3.3
