solid Exported from Blender-3.3.3
facet normal -0.000000 0.000000 1.000000
outer loop
vertex -0.188723 0.116000 0.403550
vertex -0.188723 0.096676 0.403550
vertex 0.188723 0.096676 0.403550
endloop
endfacet
facet normal 0.000000 0.000000 1.000000
outer loop
vertex -0.188723 0.116000 0.403550
vertex 0.188723 0.096676 0.403550
vertex 0.188723 0.116000 0.403550
endloop
endfacet
facet normal 0.000000 1.000000 0.000000
outer loop
vertex 0.225000 -0.116000 -0.000000
vertex -0.225000 -0.116000 -0.000000
vertex -0.225000 -0.116000 0.443000
endloop
endfacet
facet normal 0.000000 1.000000 0.000000
outer loop
vertex 0.225000 -0.116000 -0.000000
vertex -0.225000 -0.116000 0.443000
vertex 0.225000 -0.116000 0.443000
endloop
endfacet
facet normal 0.000000 0.000000 1.000000
outer loop
vertex -0.225000 0.116000 -0.000000
vertex -0.225000 -0.116000 -0.000000
vertex 0.225000 -0.116000 -0.000000
endloop
endfacet
facet normal 0.000000 0.000000 1.000000
outer loop
vertex -0.225000 0.116000 -0.000000
vertex 0.225000 -0.116000 -0.000000
vertex 0.225000 0.116000 -0.000000
endloop
endfacet
facet normal -1.000000 -0.000002 0.000000
outer loop
vertex 0.225000 0.094830 0.320699
vertex 0.225000 0.116000 0.443000
vertex 0.225000 0.116000 -0.000000
endloop
endfacet
facet normal -1.000000 0.000000 0.000000
outer loop
vertex 0.225000 0.094830 0.320699
vertex 0.225000 0.116000 -0.000000
vertex 0.225000 0.094830 0.122301
endloop
endfacet
facet normal -1.000000 0.000000 0.000000
outer loop
vertex 0.225000 0.094830 0.122301
vertex 0.225000 0.116000 -0.000000
vertex 0.225000 -0.116000 -0.000000
endloop
endfacet
facet normal -1.000000 0.000000 0.000000
outer loop
vertex 0.225000 0.094830 0.122301
vertex 0.225000 -0.116000 -0.000000
vertex 0.225000 -0.094830 0.122301
endloop
endfacet
facet normal -1.000000 0.000000 0.000000
outer loop
vertex 0.225000 -0.094830 0.320699
vertex 0.225000 -0.116000 0.443000
vertex 0.225000 0.116000 0.443000
endloop
endfacet
facet normal -1.000000 0.000000 0.000000
outer loop
vertex 0.225000 -0.094830 0.320699
vertex 0.225000 0.116000 0.443000
vertex 0.225000 0.094830 0.320699
endloop
endfacet
facet normal -1.000000 0.000002 0.000000
outer loop
vertex 0.225000 -0.094830 0.122301
vertex 0.225000 -0.116000 -0.000000
vertex 0.225000 -0.116000 0.443000
endloop
endfacet
facet normal -1.000000 0.000001 0.000000
outer loop
vertex 0.225000 -0.094830 0.122301
vertex 0.225000 -0.116000 0.443000
vertex 0.225000 -0.094830 0.320699
endloop
endfacet
facet normal 0.000000 0.000000 -1.000000
outer loop
vertex -0.205459 -0.099836 0.443000
vertex -0.225000 -0.116000 0.443000
vertex -0.225000 0.116000 0.443000
endloop
endfacet
facet normal -0.000000 0.000000 -1.000000
outer loop
vertex -0.205459 -0.099836 0.443000
vertex -0.225000 0.116000 0.443000
vertex -0.205459 0.099836 0.443000
endloop
endfacet
facet normal 0.000000 0.000000 -1.000000
outer loop
vertex -0.205459 0.099836 0.443000
vertex -0.225000 0.116000 0.443000
vertex 0.225000 0.116000 0.443000
endloop
endfacet
facet normal 0.000000 0.000000 -1.000000
outer loop
vertex -0.205459 0.099836 0.443000
vertex 0.225000 0.116000 0.443000
vertex -0.006659 0.099836 0.443000
endloop
endfacet
facet normal 0.000000 0.000000 -1.000000
outer loop
vertex -0.006659 0.099836 0.443000
vertex 0.225000 0.116000 0.443000
vertex 0.225000 -0.116000 0.443000
endloop
endfacet
facet normal 0.000000 0.000000 -1.000000
outer loop
vertex -0.006659 0.099836 0.443000
vertex 0.225000 -0.116000 0.443000
vertex -0.006659 -0.099836 0.443000
endloop
endfacet
facet normal 0.000000 0.000000 -1.000000
outer loop
vertex -0.006659 -0.099836 0.443000
vertex 0.225000 -0.116000 0.443000
vertex -0.225000 -0.116000 0.443000
endloop
endfacet
facet normal 0.000000 0.000000 -1.000000
outer loop
vertex -0.006659 -0.099836 0.443000
vertex -0.225000 -0.116000 0.443000
vertex -0.205459 -0.099836 0.443000
endloop
endfacet
facet normal 1.000000 0.000000 0.000000
outer loop
vertex -0.225000 -0.094672 0.224577
vertex -0.225000 -0.116000 -0.000000
vertex -0.225000 0.116000 -0.000000
endloop
endfacet
facet normal 1.000000 0.000000 0.000000
outer loop
vertex -0.225000 -0.094672 0.224577
vertex -0.225000 0.116000 -0.000000
vertex -0.225000 0.094672 0.224577
endloop
endfacet
facet normal 1.000000 0.000002 0.000000
outer loop
vertex -0.225000 -0.094672 0.425366
vertex -0.225000 -0.116000 0.443000
vertex -0.225000 -0.116000 -0.000000
endloop
endfacet
facet normal 1.000000 0.000000 0.000000
outer loop
vertex -0.225000 -0.094672 0.425366
vertex -0.225000 -0.116000 -0.000000
vertex -0.225000 -0.094672 0.224577
endloop
endfacet
facet normal 1.000000 0.000000 0.000000
outer loop
vertex -0.225000 0.094672 0.425367
vertex -0.225000 0.116000 0.443000
vertex -0.225000 -0.116000 0.443000
endloop
endfacet
facet normal 1.000000 -0.000000 0.000000
outer loop
vertex -0.225000 0.094672 0.425367
vertex -0.225000 -0.116000 0.443000
vertex -0.225000 -0.094672 0.425366
endloop
endfacet
facet normal 1.000000 -0.000002 0.000000
outer loop
vertex -0.225000 0.094672 0.224577
vertex -0.225000 0.116000 -0.000000
vertex -0.225000 0.116000 0.443000
endloop
endfacet
facet normal 1.000000 0.000001 0.000000
outer loop
vertex -0.225000 0.094672 0.224577
vertex -0.225000 0.116000 0.443000
vertex -0.225000 0.094672 0.425367
endloop
endfacet
facet normal 0.000000 -1.000000 0.000000
outer loop
vertex -0.188723 0.116000 0.403550
vertex -0.225000 0.116000 0.443000
vertex -0.225000 0.116000 -0.000000
endloop
endfacet
facet normal 0.000000 -1.000000 0.000000
outer loop
vertex -0.188723 0.116000 0.403550
vertex -0.225000 0.116000 -0.000000
vertex -0.188723 0.116000 0.133459
endloop
endfacet
facet normal 0.000000 -1.000000 0.000000
outer loop
vertex 0.188723 0.116000 0.403550
vertex 0.225000 0.116000 0.443000
vertex -0.225000 0.116000 0.443000
endloop
endfacet
facet normal 0.000000 -1.000000 -0.000000
outer loop
vertex 0.188723 0.116000 0.403550
vertex -0.225000 0.116000 0.443000
vertex -0.188723 0.116000 0.403550
endloop
endfacet
facet normal 0.000000 -1.000000 0.000000
outer loop
vertex 0.188723 0.116000 0.133459
vertex 0.225000 0.116000 -0.000000
vertex 0.225000 0.116000 0.443000
endloop
endfacet
facet normal 0.000000 -1.000000 0.000000
outer loop
vertex 0.188723 0.116000 0.133459
vertex 0.225000 0.116000 0.443000
vertex 0.188723 0.116000 0.403550
endloop
endfacet
facet normal 0.000000 -1.000000 -0.000000
outer loop
vertex -0.225000 0.116000 -0.000000
vertex 0.225000 0.116000 -0.000000
vertex 0.188723 0.116000 0.133459
endloop
endfacet
facet normal 0.000000 -1.000000 0.000000
outer loop
vertex -0.225000 0.116000 -0.000000
vertex 0.188723 0.116000 0.133459
vertex -0.188723 0.116000 0.133459
endloop
endfacet
facet normal 0.000000 -1.000000 0.000000
outer loop
vertex -0.188723 0.096676 0.133459
vertex 0.188723 0.096676 0.133459
vertex 0.188723 0.096676 0.403550
endloop
endfacet
facet normal 0.000000 -1.000000 0.000000
outer loop
vertex -0.188723 0.096676 0.133459
vertex 0.188723 0.096676 0.403550
vertex -0.188723 0.096676 0.403550
endloop
endfacet
facet normal -1.000000 0.000000 0.000000
outer loop
vertex -0.188723 0.116000 0.133459
vertex -0.188723 0.096676 0.133459
vertex -0.188723 0.096676 0.403550
endloop
endfacet
facet normal -1.000000 0.000000 0.000000
outer loop
vertex -0.188723 0.116000 0.133459
vertex -0.188723 0.096676 0.403550
vertex -0.188723 0.116000 0.403550
endloop
endfacet
facet normal 1.000000 0.000000 0.000000
outer loop
vertex 0.188723 0.116000 0.403550
vertex 0.188723 0.096676 0.403550
vertex 0.188723 0.096676 0.133459
endloop
endfacet
facet normal 1.000000 0.000000 0.000000
outer loop
vertex 0.188723 0.116000 0.403550
vertex 0.188723 0.096676 0.133459
vertex 0.188723 0.116000 0.133459
endloop
endfacet
facet normal 0.000000 0.000000 -1.000000
outer loop
vertex 0.188723 0.116000 0.133459
vertex 0.188723 0.096676 0.133459
vertex -0.188723 0.096676 0.133459
endloop
endfacet
facet normal 0.000000 0.000000 -1.000000
outer loop
vertex 0.188723 0.116000 0.133459
vertex -0.188723 0.096676 0.133459
vertex -0.188723 0.116000 0.133459
endloop
endfacet
facet normal 0.000000 1.000000 0.000000
outer loop
vertex -0.169033 0.096676 0.199872
vertex -0.169033 0.096676 0.234978
vertex 0.075757 0.096676 0.234978
endloop
endfacet
facet normal 0.000000 1.000000 0.000000
outer loop
vertex -0.169033 0.096676 0.199872
vertex 0.075757 0.096676 0.234978
vertex 0.075757 0.096676 0.199872
endloop
endfacet
facet normal 0.000000 -1.000000 0.000000
outer loop
vertex -0.169033 -0.061182 0.199872
vertex 0.075757 -0.061182 0.199872
vertex 0.075757 -0.061182 0.234978
endloop
endfacet
facet normal 0.000000 -1.000000 0.000000
outer loop
vertex -0.169033 -0.061182 0.199872
vertex 0.075757 -0.061182 0.234978
vertex -0.169033 -0.061182 0.234978
endloop
endfacet
facet normal 0.000000 0.000000 1.000000
outer loop
vertex -0.169033 0.096676 0.234978
vertex -0.169033 -0.061182 0.234978
vertex 0.075757 -0.061182 0.234978
endloop
endfacet
facet normal 0.000000 0.000000 1.000000
outer loop
vertex -0.169033 0.096676 0.234978
vertex 0.075757 -0.061182 0.234978
vertex 0.075757 0.096676 0.234978
endloop
endfacet
facet normal -1.000000 0.000000 0.000000
outer loop
vertex -0.169033 0.096676 0.199872
vertex -0.169033 -0.061182 0.199872
vertex -0.169033 -0.061182 0.234978
endloop
endfacet
facet normal -1.000000 0.000000 0.000000
outer loop
vertex -0.169033 0.096676 0.199872
vertex -0.169033 -0.061182 0.234978
vertex -0.169033 0.096676 0.234978
endloop
endfacet
facet normal 1.000000 0.000000 0.000000
outer loop
vertex 0.075757 0.096676 0.234978
vertex 0.075757 -0.061182 0.234978
vertex 0.075757 -0.061182 0.199872
endloop
endfacet
facet normal 1.000000 0.000000 0.000000
outer loop
vertex 0.075757 0.096676 0.234978
vertex 0.075757 -0.061182 0.199872
vertex 0.075757 0.096676 0.199872
endloop
endfacet
facet normal 0.000000 0.000000 -1.000000
outer loop
vertex 0.075757 0.096676 0.199872
vertex 0.075757 -0.061182 0.199872
vertex -0.169033 -0.061182 0.199872
endloop
endfacet
facet normal 0.000000 0.000000 -1.000000
outer loop
vertex 0.075757 0.096676 0.199872
vertex -0.169033 -0.061182 0.199872
vertex -0.169033 0.096676 0.199872
endloop
endfacet
facet normal 0.000000 1.000000 0.000000
outer loop
vertex -0.018682 0.096676 0.325186
vertex -0.018682 0.096676 0.360075
vertex 0.018682 0.096676 0.360075
endloop
endfacet
facet normal 0.000000 1.000000 0.000000
outer loop
vertex -0.018682 0.096676 0.325186
vertex 0.018682 0.096676 0.360075
vertex 0.018682 0.096676 0.325186
endloop
endfacet
facet normal 0.000000 1.000000 -0.000000
outer loop
vertex 0.018682 0.048592 0.325186
vertex 0.077704 0.048592 0.270076
vertex -0.077704 0.048592 0.270076
endloop
endfacet
facet normal 0.000000 1.000000 0.000000
outer loop
vertex 0.018682 0.048592 0.325186
vertex -0.077704 0.048592 0.270076
vertex -0.018682 0.048592 0.325186
endloop
endfacet
facet normal 1.000000 0.000000 0.000000
outer loop
vertex 0.018682 0.096676 0.360075
vertex 0.018682 0.048592 0.360075
vertex 0.018682 0.048592 0.325186
endloop
endfacet
facet normal 1.000000 0.000000 0.000000
outer loop
vertex 0.018682 0.096676 0.360075
vertex 0.018682 0.048592 0.325186
vertex 0.018682 0.096676 0.325186
endloop
endfacet
facet normal 0.000000 0.000000 -1.000000
outer loop
vertex 0.018682 0.096676 0.325186
vertex 0.018682 0.048592 0.325186
vertex -0.018682 0.048592 0.325186
endloop
endfacet
facet normal 0.000000 0.000000 -1.000000
outer loop
vertex 0.018682 0.096676 0.325186
vertex -0.018682 0.048592 0.325186
vertex -0.018682 0.096676 0.325186
endloop
endfacet
facet normal 0.000000 0.000000 1.000000
outer loop
vertex -0.018682 0.096676 0.360075
vertex -0.018682 0.048592 0.360075
vertex 0.018682 0.048592 0.360075
endloop
endfacet
facet normal 0.000000 0.000000 1.000000
outer loop
vertex -0.018682 0.096676 0.360075
vertex 0.018682 0.048592 0.360075
vertex 0.018682 0.096676 0.360075
endloop
endfacet
facet normal -1.000000 0.000000 0.000000
outer loop
vertex -0.018682 0.096676 0.325186
vertex -0.018682 0.048592 0.325186
vertex -0.018682 0.048592 0.360075
endloop
endfacet
facet normal -1.000000 0.000000 0.000000
outer loop
vertex -0.018682 0.096676 0.325186
vertex -0.018682 0.048592 0.360075
vertex -0.018682 0.096676 0.360075
endloop
endfacet
facet normal 0.000000 0.000000 1.000000
outer loop
vertex -0.077704 0.048592 0.415185
vertex -0.077704 -0.102656 0.415185
vertex 0.077704 -0.102656 0.415185
endloop
endfacet
facet normal 0.000000 0.000000 1.000000
outer loop
vertex -0.077704 0.048592 0.415185
vertex 0.077704 -0.102656 0.415185
vertex 0.077704 0.048592 0.415185
endloop
endfacet
facet normal 0.000000 1.000000 0.000000
outer loop
vertex -0.018682 0.048592 0.360075
vertex -0.077704 0.048592 0.415185
vertex 0.077704 0.048592 0.415185
endloop
endfacet
facet normal 0.000000 1.000000 -0.000000
outer loop
vertex -0.018682 0.048592 0.360075
vertex 0.077704 0.048592 0.415185
vertex 0.018682 0.048592 0.360075
endloop
endfacet
facet normal 0.000000 1.000000 0.000000
outer loop
vertex -0.018682 0.048592 0.325186
vertex -0.077704 0.048592 0.270076
vertex -0.077704 0.048592 0.415185
endloop
endfacet
facet normal 0.000000 1.000000 0.000000
outer loop
vertex -0.018682 0.048592 0.325186
vertex -0.077704 0.048592 0.415185
vertex -0.018682 0.048592 0.360075
endloop
endfacet
facet normal 0.000000 1.000000 0.000000
outer loop
vertex 0.018682 0.048592 0.360075
vertex 0.077704 0.048592 0.415185
vertex 0.077704 0.048592 0.270076
endloop
endfacet
facet normal 0.000000 1.000000 0.000000
outer loop
vertex 0.018682 0.048592 0.360075
vertex 0.077704 0.048592 0.270076
vertex 0.018682 0.048592 0.325186
endloop
endfacet
facet normal 0.000000 -1.000000 0.000000
outer loop
vertex -0.077704 -0.102656 0.270076
vertex 0.077704 -0.102656 0.270076
vertex 0.077704 -0.102656 0.415185
endloop
endfacet
facet normal 0.000000 -1.000000 0.000000
outer loop
vertex -0.077704 -0.102656 0.270076
vertex 0.077704 -0.102656 0.415185
vertex -0.077704 -0.102656 0.415185
endloop
endfacet
facet normal -1.000000 0.000000 0.000000
outer loop
vertex -0.077704 0.048592 0.270076
vertex -0.077704 -0.102656 0.270076
vertex -0.077704 -0.102656 0.415185
endloop
endfacet
facet normal -1.000000 0.000000 0.000000
outer loop
vertex -0.077704 0.048592 0.270076
vertex -0.077704 -0.102656 0.415185
vertex -0.077704 0.048592 0.415185
endloop
endfacet
facet normal 1.000000 0.000000 0.000000
outer loop
vertex 0.077704 0.048592 0.415185
vertex 0.077704 -0.102656 0.415185
vertex 0.077704 -0.102656 0.270076
endloop
endfacet
facet normal 1.000000 0.000000 0.000000
outer loop
vertex 0.077704 0.048592 0.415185
vertex 0.077704 -0.102656 0.270076
vertex 0.077704 0.048592 0.270076
endloop
endfacet
facet normal 0.000000 0.000000 -1.000000
outer loop
vertex 0.077704 0.048592 0.270076
vertex 0.077704 -0.102656 0.270076
vertex -0.077704 -0.102656 0.270076
endloop
endfacet
facet normal 0.000000 0.000000 -1.000000
outer loop
vertex 0.077704 0.048592 0.270076
vertex -0.077704 -0.102656 0.270076
vertex -0.077704 0.048592 0.270076
endloop
endfacet
facet normal 0.000000 1.000000 0.000000
outer loop
vertex -0.206862 0.116000 -0.000000
vertex -0.206862 0.116000 0.094546
vertex 0.206862 0.116000 0.094546
endloop
endfacet
facet normal 0.000000 1.000000 0.000000
outer loop
vertex -0.206862 0.116000 -0.000000
vertex 0.206862 0.116000 0.094546
vertex 0.206862 0.116000 -0.000000
endloop
endfacet
facet normal 0.000000 -1.000000 0.000000
outer loop
vertex -0.206862 -0.090312 -0.000000
vertex 0.206862 -0.090312 -0.000000
vertex 0.206862 -0.090312 0.094546
endloop
endfacet
facet normal 0.000000 -1.000000 0.000000
outer loop
vertex -0.206862 -0.090312 -0.000000
vertex 0.206862 -0.090312 0.094546
vertex -0.206862 -0.090312 0.094546
endloop
endfacet
facet normal 1.000000 0.000000 0.000000
outer loop
vertex 0.206862 0.116000 -0.000000
vertex 0.206862 0.116000 0.094546
vertex 0.206862 -0.090312 0.094546
endloop
endfacet
facet normal 1.000000 0.000000 0.000000
outer loop
vertex 0.206862 0.116000 -0.000000
vertex 0.206862 -0.090312 0.094546
vertex 0.206862 -0.090312 -0.000000
endloop
endfacet
facet normal 0.000000 0.000000 1.000000
outer loop
vertex 0.206862 0.116000 0.094546
vertex -0.206862 0.116000 0.094546
vertex -0.206862 -0.090312 0.094546
endloop
endfacet
facet normal 0.000000 0.000000 1.000000
outer loop
vertex 0.206862 0.116000 0.094546
vertex -0.206862 -0.090312 0.094546
vertex 0.206862 -0.090312 0.094546
endloop
endfacet
facet normal -1.000000 0.000000 0.000000
outer loop
vertex -0.206862 0.116000 0.094546
vertex -0.206862 0.116000 -0.000000
vertex -0.206862 -0.090312 -0.000000
endloop
endfacet
facet normal -1.000000 0.000000 0.000000
outer loop
vertex -0.206862 0.116000 0.094546
vertex -0.206862 -0.090312 -0.000000
vertex -0.206862 -0.090312 0.094546
endloop
endfacet
facet normal 0.000000 0.000000 -1.000000
outer loop
vertex -0.206862 0.116000 -0.000000
vertex 0.206862 0.116000 -0.000000
vertex 0.206862 -0.090312 -0.000000
endloop
endfacet
facet normal 0.000000 0.000000 -1.000000
outer loop
vertex -0.206862 0.116000 -0.000000
vertex 0.206862 -0.090312 -0.000000
vertex -0.206862 -0.090312 -0.000000
endloop
endfacet
endsolid Exported from Blender-3.3.3
