solid Exported from Blender-3.3.3
facet normal 0.000000 0.615985 0.787758
outer loop
vertex -0.421307 0.266282 0.072941
vertex 0.421307 0.266282 0.072941
vertex 0.421307 0.727628 -0.287807
endloop
endfacet
facet normal 0.000000 0.615985 0.787758
outer loop
vertex -0.421307 0.266282 0.072941
vertex 0.421307 0.727628 -0.287807
vertex -0.421307 0.727628 -0.287807
endloop
endfacet
facet normal 0.000000 0.036117 0.999348
outer loop
vertex -0.421307 -0.157304 0.201295
vertex 0.421307 -0.157304 0.201295
vertex 0.421307 -0.128011 0.200236
endloop
endfacet
facet normal 0.000000 0.036116 0.999348
outer loop
vertex -0.421307 -0.157304 0.201295
vertex 0.421307 -0.128011 0.200236
vertex -0.421307 -0.128011 0.200236
endloop
endfacet
facet normal 0.000000 -0.657709 -0.753272
outer loop
vertex -0.421307 -0.200047 0.050738
vertex 0.421307 -0.200047 0.050738
vertex 0.421307 -0.221025 0.069054
endloop
endfacet
facet normal -0.000000 -0.657710 -0.753272
outer loop
vertex -0.421307 -0.200047 0.050738
vertex 0.421307 -0.221025 0.069054
vertex -0.421307 -0.221025 0.069054
endloop
endfacet
facet normal 1.000000 0.000000 0.000000
outer loop
vertex 0.421307 -0.221025 0.069054
vertex 0.421307 -0.200047 0.050738
vertex 0.421307 -0.153340 0.013337
endloop
endfacet
facet normal 1.000000 -0.000014 0.000000
outer loop
vertex 0.421307 -0.153340 0.013337
vertex 0.421307 -0.096168 -0.026668
vertex 0.421307 -0.032427 -0.066550
endloop
endfacet
facet normal 1.000000 0.000007 0.000000
outer loop
vertex 0.421307 -0.032427 -0.066550
vertex 0.421307 0.033538 -0.103593
vertex 0.421307 0.097232 -0.135272
endloop
endfacet
facet normal 1.000000 0.000000 0.000000
outer loop
vertex 0.421307 0.097232 -0.135272
vertex 0.421307 0.154315 -0.159428
vertex 0.421307 0.703839 -0.337178
endloop
endfacet
facet normal 1.000000 -0.000003 0.000000
outer loop
vertex 0.421307 0.703839 -0.337178
vertex 0.421307 0.749403 -0.353017
vertex 0.421307 0.779328 -0.360315
endloop
endfacet
facet normal 1.000000 -0.000004 0.000000
outer loop
vertex 0.421307 0.779328 -0.360315
vertex 0.421307 0.794209 -0.353103
vertex 0.421307 0.789706 -0.338776
endloop
endfacet
facet normal 1.000000 0.000008 0.000000
outer loop
vertex 0.421307 0.789706 -0.338776
vertex 0.421307 0.766997 -0.316505
vertex 0.421307 0.727628 -0.287807
endloop
endfacet
facet normal 1.000000 -0.000003 0.000000
outer loop
vertex 0.421307 0.727628 -0.287807
vertex 0.421307 0.266282 0.072941
vertex 0.421307 0.212593 0.104140
endloop
endfacet
facet normal 1.000000 0.000004 0.000000
outer loop
vertex 0.421307 0.212593 0.104140
vertex 0.421307 0.147898 0.133742
vertex 0.421307 0.076607 0.159731
endloop
endfacet
facet normal 1.000000 -0.000002 0.000000
outer loop
vertex 0.421307 0.076607 0.159731
vertex 0.421307 0.003577 0.180335
vertex 0.421307 -0.066215 0.194151
endloop
endfacet
facet normal 1.000000 -0.000001 0.000000
outer loop
vertex 0.421307 -0.066215 0.194151
vertex 0.421307 -0.128011 0.200236
vertex 0.421307 -0.157304 0.201295
endloop
endfacet
facet normal 1.000000 0.000000 0.000000
outer loop
vertex 0.421307 -0.157304 0.201295
vertex 0.421307 -0.208222 0.197738
vertex 0.421307 -0.246117 0.183285
endloop
endfacet
facet normal 1.000000 -0.000003 0.000000
outer loop
vertex 0.421307 -0.246117 0.183285
vertex 0.421307 -0.268407 0.158920
vertex 0.421307 -0.271111 0.131414
endloop
endfacet
facet normal 1.000000 0.000000 0.000000
outer loop
vertex 0.421307 -0.271111 0.131414
vertex 0.421307 -0.254051 0.102628
vertex 0.421307 -0.221025 0.069054
endloop
endfacet
facet normal 1.000000 0.000006 0.000000
outer loop
vertex 0.421307 -0.221025 0.069054
vertex 0.421307 -0.153340 0.013337
vertex 0.421307 -0.032427 -0.066550
endloop
endfacet
facet normal 1.000000 -0.000001 0.000000
outer loop
vertex 0.421307 -0.032427 -0.066550
vertex 0.421307 0.097232 -0.135272
vertex 0.421307 0.703839 -0.337178
endloop
endfacet
facet normal 1.000000 0.000000 0.000000
outer loop
vertex 0.421307 0.703839 -0.337178
vertex 0.421307 0.779328 -0.360315
vertex 0.421307 0.789706 -0.338776
endloop
endfacet
facet normal 1.000000 0.000000 0.000000
outer loop
vertex 0.421307 0.789706 -0.338776
vertex 0.421307 0.727628 -0.287807
vertex 0.421307 0.212593 0.104140
endloop
endfacet
facet normal 1.000000 0.000000 0.000000
outer loop
vertex 0.421307 0.212593 0.104140
vertex 0.421307 0.076607 0.159731
vertex 0.421307 -0.066215 0.194151
endloop
endfacet
facet normal 1.000000 0.000000 0.000000
outer loop
vertex 0.421307 -0.066215 0.194151
vertex 0.421307 -0.157304 0.201295
vertex 0.421307 -0.246117 0.183285
endloop
endfacet
facet normal 1.000000 0.000000 0.000000
outer loop
vertex 0.421307 -0.246117 0.183285
vertex 0.421307 -0.271111 0.131414
vertex 0.421307 -0.221025 0.069054
endloop
endfacet
facet normal 1.000000 0.000000 0.000000
outer loop
vertex 0.421307 -0.221025 0.069054
vertex 0.421307 -0.032427 -0.066550
vertex 0.421307 0.703839 -0.337178
endloop
endfacet
facet normal 1.000000 0.000000 0.000000
outer loop
vertex 0.421307 0.703839 -0.337178
vertex 0.421307 0.789706 -0.338776
vertex 0.421307 0.212593 0.104140
endloop
endfacet
facet normal 1.000000 0.000000 0.000000
outer loop
vertex 0.421307 0.212593 0.104140
vertex 0.421307 -0.066215 0.194151
vertex 0.421307 -0.246117 0.183285
endloop
endfacet
facet normal 1.000000 -0.000000 0.000000
outer loop
vertex 0.421307 -0.246117 0.183285
vertex 0.421307 -0.221025 0.069054
vertex 0.421307 0.703839 -0.337178
endloop
endfacet
facet normal 1.000000 0.000000 0.000000
outer loop
vertex 0.421307 0.703839 -0.337178
vertex 0.421307 0.212593 0.104140
vertex 0.421307 -0.246117 0.183285
endloop
endfacet
facet normal 0.000000 -0.307762 -0.951463
outer loop
vertex -0.421307 0.703839 -0.337178
vertex 0.421307 0.703839 -0.337178
vertex 0.421307 0.154315 -0.159428
endloop
endfacet
facet normal 0.000000 -0.307762 -0.951463
outer loop
vertex -0.421307 0.703839 -0.337178
vertex 0.421307 0.154315 -0.159428
vertex -0.421307 0.154315 -0.159428
endloop
endfacet
facet normal 0.000000 0.589060 0.808089
outer loop
vertex -0.421307 0.727628 -0.287807
vertex 0.421307 0.727628 -0.287807
vertex 0.421307 0.766997 -0.316505
endloop
endfacet
facet normal 0.000000 0.589063 0.808087
outer loop
vertex -0.421307 0.727628 -0.287807
vertex 0.421307 0.766997 -0.316505
vertex -0.421307 0.766997 -0.316505
endloop
endfacet
facet normal -0.000000 0.700185 0.713962
outer loop
vertex -0.421307 0.766997 -0.316505
vertex 0.421307 0.766997 -0.316505
vertex 0.421307 0.789706 -0.338776
endloop
endfacet
facet normal 0.000000 0.700186 0.713960
outer loop
vertex -0.421307 0.766997 -0.316505
vertex 0.421307 0.789706 -0.338776
vertex -0.421307 0.789706 -0.338776
endloop
endfacet
facet normal 0.000000 0.953996 0.299819
outer loop
vertex -0.421307 0.789706 -0.338776
vertex 0.421307 0.789706 -0.338776
vertex 0.421307 0.794209 -0.353103
endloop
endfacet
facet normal 0.000000 0.953996 0.299819
outer loop
vertex -0.421307 0.789706 -0.338776
vertex 0.421307 0.794209 -0.353103
vertex -0.421307 0.794209 -0.353103
endloop
endfacet
facet normal 0.000000 0.436100 -0.899898
outer loop
vertex -0.421307 0.794209 -0.353103
vertex 0.421307 0.794209 -0.353103
vertex 0.421307 0.779328 -0.360315
endloop
endfacet
facet normal -0.000000 0.436095 -0.899901
outer loop
vertex -0.421307 0.794209 -0.353103
vertex 0.421307 0.779328 -0.360315
vertex -0.421307 0.779328 -0.360314
endloop
endfacet
facet normal -0.000000 -0.236909 -0.971532
outer loop
vertex -0.421307 0.779328 -0.360314
vertex 0.421307 0.779328 -0.360315
vertex 0.421307 0.749403 -0.353017
endloop
endfacet
facet normal 0.000000 -0.236909 -0.971532
outer loop
vertex -0.421307 0.779328 -0.360314
vertex 0.421307 0.749403 -0.353017
vertex -0.421307 0.749403 -0.353017
endloop
endfacet
facet normal 0.000000 -0.328352 -0.944555
outer loop
vertex -0.421307 0.749403 -0.353017
vertex 0.421307 0.749403 -0.353017
vertex 0.421307 0.703839 -0.337178
endloop
endfacet
facet normal 0.000000 -0.328351 -0.944556
outer loop
vertex -0.421307 0.749403 -0.353017
vertex 0.421307 0.703839 -0.337178
vertex -0.421307 0.703839 -0.337178
endloop
endfacet
facet normal 0.000000 -0.625046 -0.780588
outer loop
vertex 0.421307 -0.200047 0.050738
vertex -0.421307 -0.200047 0.050738
vertex -0.421307 -0.153340 0.013337
endloop
endfacet
facet normal 0.000000 -0.625047 -0.780587
outer loop
vertex 0.421307 -0.200047 0.050738
vertex -0.421307 -0.153340 0.013337
vertex 0.421307 -0.153340 0.013337
endloop
endfacet
facet normal 0.000000 -0.573312 -0.819337
outer loop
vertex 0.421307 -0.153340 0.013337
vertex -0.421307 -0.153340 0.013337
vertex -0.421307 -0.096168 -0.026668
endloop
endfacet
facet normal 0.000000 -0.573312 -0.819337
outer loop
vertex 0.421307 -0.153340 0.013337
vertex -0.421307 -0.096168 -0.026668
vertex 0.421307 -0.096168 -0.026668
endloop
endfacet
facet normal 0.000000 -0.530430 -0.847729
outer loop
vertex 0.421307 -0.096168 -0.026668
vertex -0.421307 -0.096168 -0.026668
vertex -0.421307 -0.032427 -0.066550
endloop
endfacet
facet normal -0.000000 -0.530430 -0.847729
outer loop
vertex 0.421307 -0.096168 -0.026668
vertex -0.421307 -0.032427 -0.066550
vertex 0.421307 -0.032427 -0.066550
endloop
endfacet
facet normal -0.000000 -0.489635 -0.871927
outer loop
vertex 0.421307 -0.032427 -0.066550
vertex -0.421307 -0.032427 -0.066550
vertex -0.421307 0.033538 -0.103593
endloop
endfacet
facet normal 0.000000 -0.489635 -0.871927
outer loop
vertex 0.421307 -0.032427 -0.066550
vertex -0.421307 0.033538 -0.103593
vertex 0.421307 0.033538 -0.103593
endloop
endfacet
facet normal 0.000000 -0.445319 -0.895372
outer loop
vertex 0.421307 0.033538 -0.103593
vertex -0.421307 0.033538 -0.103593
vertex -0.421307 0.097232 -0.135272
endloop
endfacet
facet normal 0.000000 -0.445319 -0.895372
outer loop
vertex 0.421307 0.033538 -0.103593
vertex -0.421307 0.097232 -0.135272
vertex 0.421307 0.097232 -0.135272
endloop
endfacet
facet normal 0.000000 -0.389710 -0.920938
outer loop
vertex 0.421307 0.097232 -0.135272
vertex -0.421307 0.097232 -0.135272
vertex -0.421307 0.154315 -0.159428
endloop
endfacet
facet normal 0.000000 -0.389711 -0.920937
outer loop
vertex 0.421307 0.097232 -0.135272
vertex -0.421307 0.154315 -0.159428
vertex 0.421307 0.154315 -0.159428
endloop
endfacet
facet normal 0.000000 -0.069681 0.997569
outer loop
vertex 0.421307 -0.157304 0.201295
vertex -0.421307 -0.157304 0.201295
vertex -0.421307 -0.208222 0.197738
endloop
endfacet
facet normal 0.000000 -0.069681 0.997569
outer loop
vertex 0.421307 -0.157304 0.201295
vertex -0.421307 -0.208222 0.197738
vertex 0.421307 -0.208222 0.197738
endloop
endfacet
facet normal 0.000000 -0.356362 0.934348
outer loop
vertex 0.421307 -0.208222 0.197738
vertex -0.421307 -0.208222 0.197738
vertex -0.421307 -0.246117 0.183285
endloop
endfacet
facet normal -0.000000 -0.356361 0.934348
outer loop
vertex 0.421307 -0.208222 0.197738
vertex -0.421307 -0.246117 0.183285
vertex 0.421307 -0.246117 0.183285
endloop
endfacet
facet normal -0.000000 -0.737822 0.674995
outer loop
vertex 0.421307 -0.246117 0.183285
vertex -0.421307 -0.246117 0.183285
vertex -0.421307 -0.268407 0.158920
endloop
endfacet
facet normal 0.000000 -0.737822 0.674995
outer loop
vertex 0.421307 -0.246117 0.183285
vertex -0.421307 -0.268407 0.158920
vertex 0.421307 -0.268407 0.158920
endloop
endfacet
facet normal 0.000000 -0.995203 0.097829
outer loop
vertex 0.421307 -0.268407 0.158920
vertex -0.421307 -0.268407 0.158920
vertex -0.421307 -0.271111 0.131414
endloop
endfacet
facet normal 0.000000 -0.995203 0.097829
outer loop
vertex 0.421307 -0.268407 0.158920
vertex -0.421307 -0.271111 0.131414
vertex 0.421307 -0.271111 0.131414
endloop
endfacet
facet normal -0.000000 -0.860273 -0.509834
outer loop
vertex 0.421307 -0.271111 0.131414
vertex -0.421307 -0.271111 0.131414
vertex -0.421307 -0.254051 0.102628
endloop
endfacet
facet normal 0.000000 -0.860273 -0.509834
outer loop
vertex 0.421307 -0.271111 0.131414
vertex -0.421307 -0.254051 0.102628
vertex 0.421307 -0.254051 0.102628
endloop
endfacet
facet normal 0.000000 -0.712901 -0.701264
outer loop
vertex 0.421307 -0.254051 0.102628
vertex -0.421307 -0.254051 0.102628
vertex -0.421307 -0.221025 0.069054
endloop
endfacet
facet normal -0.000000 -0.712901 -0.701264
outer loop
vertex 0.421307 -0.254051 0.102628
vertex -0.421307 -0.221025 0.069054
vertex 0.421307 -0.221025 0.069054
endloop
endfacet
facet normal 0.000000 0.502428 0.864619
outer loop
vertex 0.421307 0.266282 0.072941
vertex -0.421307 0.266282 0.072941
vertex -0.421307 0.212593 0.104140
endloop
endfacet
facet normal 0.000000 0.502428 0.864619
outer loop
vertex 0.421307 0.266282 0.072941
vertex -0.421307 0.212593 0.104140
vertex 0.421307 0.212593 0.104140
endloop
endfacet
facet normal -0.000000 0.416082 0.909327
outer loop
vertex 0.421307 0.212593 0.104140
vertex -0.421307 0.212593 0.104140
vertex -0.421307 0.147898 0.133742
endloop
endfacet
facet normal 0.000000 0.416082 0.909327
outer loop
vertex 0.421307 0.212593 0.104140
vertex -0.421307 0.147898 0.133742
vertex 0.421307 0.147898 0.133742
endloop
endfacet
facet normal 0.000000 0.342497 0.939519
outer loop
vertex 0.421307 0.147898 0.133742
vertex -0.421307 0.147898 0.133742
vertex -0.421307 0.076607 0.159731
endloop
endfacet
facet normal 0.000000 0.342497 0.939519
outer loop
vertex 0.421307 0.147898 0.133742
vertex -0.421307 0.076607 0.159731
vertex 0.421307 0.076607 0.159731
endloop
endfacet
facet normal 0.000000 0.271536 0.962428
outer loop
vertex 0.421307 0.076607 0.159731
vertex -0.421307 0.076607 0.159731
vertex -0.421307 0.003577 0.180335
endloop
endfacet
facet normal -0.000000 0.271536 0.962428
outer loop
vertex 0.421307 0.076607 0.159731
vertex -0.421307 0.003577 0.180335
vertex 0.421307 0.003577 0.180335
endloop
endfacet
facet normal 0.000000 0.194188 0.980964
outer loop
vertex 0.421307 0.003577 0.180335
vertex -0.421307 0.003577 0.180335
vertex -0.421307 -0.066215 0.194151
endloop
endfacet
facet normal 0.000000 0.194187 0.980964
outer loop
vertex 0.421307 0.003577 0.180335
vertex -0.421307 -0.066215 0.194151
vertex 0.421307 -0.066215 0.194151
endloop
endfacet
facet normal 0.000000 0.097999 0.995186
outer loop
vertex 0.421307 -0.066215 0.194151
vertex -0.421307 -0.066215 0.194151
vertex -0.421307 -0.128011 0.200236
endloop
endfacet
facet normal 0.000000 0.097999 0.995187
outer loop
vertex 0.421307 -0.066215 0.194151
vertex -0.421307 -0.128011 0.200236
vertex 0.421307 -0.128011 0.200236
endloop
endfacet
facet normal -1.000000 0.000000 0.000000
outer loop
vertex -0.421307 0.727628 -0.287807
vertex -0.421307 0.766997 -0.316505
vertex -0.421307 0.789706 -0.338776
endloop
endfacet
facet normal -1.000000 -0.000002 0.000000
outer loop
vertex -0.421307 0.789706 -0.338776
vertex -0.421307 0.794209 -0.353103
vertex -0.421307 0.779328 -0.360314
endloop
endfacet
facet normal -1.000000 0.000000 0.000000
outer loop
vertex -0.421307 0.779328 -0.360314
vertex -0.421307 0.749403 -0.353017
vertex -0.421307 0.703839 -0.337178
endloop
endfacet
facet normal -1.000000 0.000000 0.000000
outer loop
vertex -0.421307 0.703839 -0.337178
vertex -0.421307 0.154315 -0.159428
vertex -0.421307 0.097232 -0.135272
endloop
endfacet
facet normal -1.000000 -0.000007 0.000000
outer loop
vertex -0.421307 0.097232 -0.135272
vertex -0.421307 0.033538 -0.103593
vertex -0.421307 -0.032427 -0.066550
endloop
endfacet
facet normal -1.000000 0.000000 0.000000
outer loop
vertex -0.421307 -0.032427 -0.066550
vertex -0.421307 -0.096168 -0.026668
vertex -0.421307 -0.153340 0.013337
endloop
endfacet
facet normal -1.000000 -0.000039 0.000000
outer loop
vertex -0.421307 -0.153340 0.013337
vertex -0.421307 -0.200047 0.050738
vertex -0.421307 -0.221025 0.069054
endloop
endfacet
facet normal -1.000000 0.000000 0.000000
outer loop
vertex -0.421307 -0.221025 0.069054
vertex -0.421307 -0.254051 0.102628
vertex -0.421307 -0.271111 0.131414
endloop
endfacet
facet normal -1.000000 0.000000 0.000000
outer loop
vertex -0.421307 -0.271111 0.131414
vertex -0.421307 -0.268407 0.158920
vertex -0.421307 -0.246117 0.183285
endloop
endfacet
facet normal -1.000000 -0.000001 0.000000
outer loop
vertex -0.421307 -0.246117 0.183285
vertex -0.421307 -0.208222 0.197738
vertex -0.421307 -0.157304 0.201295
endloop
endfacet
facet normal -1.000000 0.000000 0.000000
outer loop
vertex -0.421307 -0.157304 0.201295
vertex -0.421307 -0.128011 0.200236
vertex -0.421307 -0.066215 0.194151
endloop
endfacet
facet normal -1.000000 0.000000 0.000000
outer loop
vertex -0.421307 -0.066215 0.194151
vertex -0.421307 0.003577 0.180335
vertex -0.421307 0.076607 0.159731
endloop
endfacet
facet normal -1.000000 0.000000 0.000000
outer loop
vertex -0.421307 0.076607 0.159731
vertex -0.421307 0.147898 0.133742
vertex -0.421307 0.212593 0.104140
endloop
endfacet
facet normal -1.000000 0.000000 0.000000
outer loop
vertex -0.421307 0.212593 0.104140
vertex -0.421307 0.266282 0.072941
vertex -0.421307 0.727628 -0.287807
endloop
endfacet
facet normal -1.000000 0.000001 0.000000
outer loop
vertex -0.421307 0.727628 -0.287807
vertex -0.421307 0.789706 -0.338776
vertex -0.421307 0.779328 -0.360314
endloop
endfacet
facet normal -1.000000 -0.000012 0.000000
outer loop
vertex -0.421307 0.779328 -0.360314
vertex -0.421307 0.703839 -0.337178
vertex -0.421307 0.097232 -0.135272
endloop
endfacet
facet normal -1.000000 0.000004 0.000000
outer loop
vertex -0.421307 0.097232 -0.135272
vertex -0.421307 -0.032427 -0.066550
vertex -0.421307 -0.153340 0.013337
endloop
endfacet
facet normal -1.000000 0.000000 0.000000
outer loop
vertex -0.421307 -0.153340 0.013337
vertex -0.421307 -0.221025 0.069054
vertex -0.421307 -0.271111 0.131414
endloop
endfacet
facet normal -1.000000 -0.000000 0.000000
outer loop
vertex -0.421307 -0.271111 0.131414
vertex -0.421307 -0.246117 0.183285
vertex -0.421307 -0.157304 0.201295
endloop
endfacet
facet normal -1.000000 0.000001 0.000000
outer loop
vertex -0.421307 -0.157304 0.201295
vertex -0.421307 -0.066215 0.194151
vertex -0.421307 0.076607 0.159731
endloop
endfacet
facet normal -1.000000 0.000000 0.000000
outer loop
vertex -0.421307 0.076607 0.159731
vertex -0.421307 0.212593 0.104140
vertex -0.421307 0.727628 -0.287807
endloop
endfacet
facet normal -1.000000 0.000000 0.000000
outer loop
vertex -0.421307 0.727628 -0.287807
vertex -0.421307 0.779328 -0.360314
vertex -0.421307 0.097232 -0.135272
endloop
endfacet
facet normal -1.000000 -0.000001 0.000000
outer loop
vertex -0.421307 0.097232 -0.135272
vertex -0.421307 -0.153340 0.013337
vertex -0.421307 -0.271111 0.131414
endloop
endfacet
facet normal -1.000000 -0.000000 0.000000
outer loop
vertex -0.421307 -0.271111 0.131414
vertex -0.421307 -0.157304 0.201295
vertex -0.421307 0.076607 0.159731
endloop
endfacet
facet normal -1.000000 0.000000 0.000000
outer loop
vertex -0.421307 0.076607 0.159731
vertex -0.421307 0.727628 -0.287807
vertex -0.421307 0.097232 -0.135272
endloop
endfacet
facet normal -1.000000 -0.000000 0.000000
outer loop
vertex -0.421307 0.097232 -0.135272
vertex -0.421307 -0.271111 0.131414
vertex -0.421307 0.076607 0.159731
endloop
endfacet
endsolid Exported from Blender-3.3.3
