solid Exported from Blender-3.3.3
facet normal 0.362092 0.000000 0.932143
outer loop
vertex -0.103655 1.000000 0.901707
vertex -0.267851 1.000000 0.965489
vertex -0.267851 -1.000000 0.965489
endloop
endfacet
facet normal 0.362091 0.000000 0.932143
outer loop
vertex -0.103655 1.000000 0.901707
vertex -0.267851 -1.000000 0.965489
vertex -0.103655 -1.000000 0.901707
endloop
endfacet
facet normal -0.575620 0.000000 -0.817717
outer loop
vertex -0.547578 1.000000 0.512135
vertex 1.631128 1.000000 -1.021533
vertex 1.631128 -1.000000 -1.021533
endloop
endfacet
facet normal -0.575620 0.000000 -0.817717
outer loop
vertex -0.547578 1.000000 0.512135
vertex 1.631128 -1.000000 -1.021533
vertex -0.547578 -1.000000 0.512135
endloop
endfacet
facet normal 0.792559 0.000000 0.609795
outer loop
vertex 1.109601 1.000000 -0.260648
vertex 0.919854 1.000000 -0.014032
vertex 0.919854 -1.000000 -0.014032
endloop
endfacet
facet normal 0.792559 0.000000 0.609795
outer loop
vertex 1.109601 1.000000 -0.260648
vertex 0.919854 -1.000000 -0.014032
vertex 1.109601 -1.000000 -0.260648
endloop
endfacet
facet normal -0.993312 0.000000 0.115464
outer loop
vertex -0.704359 1.000000 0.848903
vertex -0.711184 1.000000 0.790189
vertex -0.711184 -1.000000 0.790189
endloop
endfacet
facet normal -0.993312 0.000000 0.115465
outer loop
vertex -0.704359 1.000000 0.848903
vertex -0.711184 -1.000000 0.790189
vertex -0.704359 -1.000000 0.848903
endloop
endfacet
facet normal 0.283259 0.000000 0.959044
outer loop
vertex -0.267851 1.000000 0.965489
vertex -0.365871 1.000000 0.994440
vertex -0.365871 -1.000000 0.994440
endloop
endfacet
facet normal 0.283259 0.000000 0.959044
outer loop
vertex -0.267851 1.000000 0.965489
vertex -0.365871 -1.000000 0.994440
vertex -0.267851 -1.000000 0.965489
endloop
endfacet
facet normal 0.766886 0.000000 0.641783
outer loop
vertex 0.919854 1.000000 -0.014032
vertex 0.735906 1.000000 0.205773
vertex 0.735906 -1.000000 0.205773
endloop
endfacet
facet normal 0.766886 0.000000 0.641783
outer loop
vertex 0.919854 1.000000 -0.014032
vertex 0.735906 -1.000000 0.205773
vertex 0.919854 -1.000000 -0.014032
endloop
endfacet
facet normal -0.996922 0.000000 -0.078395
outer loop
vertex -0.711184 1.000000 0.790189
vertex -0.706164 1.000000 0.726355
vertex -0.706164 -1.000000 0.726355
endloop
endfacet
facet normal -0.996922 0.000000 -0.078395
outer loop
vertex -0.711184 1.000000 0.790189
vertex -0.706164 -1.000000 0.726355
vertex -0.711184 -1.000000 0.790189
endloop
endfacet
facet normal 0.069039 0.000000 0.997614
outer loop
vertex -0.365871 1.000000 0.994440
vertex -0.463978 1.000000 1.001229
vertex -0.463978 -1.000000 1.001229
endloop
endfacet
facet normal 0.069041 0.000000 0.997614
outer loop
vertex -0.365871 1.000000 0.994440
vertex -0.463978 -1.000000 1.001229
vertex -0.365871 -1.000000 0.994440
endloop
endfacet
facet normal 0.699007 0.000000 0.715115
outer loop
vertex 0.735906 1.000000 0.205773
vertex 0.571798 1.000000 0.366185
vertex 0.571798 -1.000000 0.366185
endloop
endfacet
facet normal 0.699007 0.000000 0.715115
outer loop
vertex 0.735906 1.000000 0.205773
vertex 0.571798 -1.000000 0.366185
vertex 0.735906 -1.000000 0.205773
endloop
endfacet
facet normal -0.984325 0.000000 -0.176367
outer loop
vertex -0.706164 1.000000 0.726355
vertex -0.696733 1.000000 0.673718
vertex -0.696733 -1.000000 0.673718
endloop
endfacet
facet normal -0.984325 0.000000 -0.176367
outer loop
vertex -0.706164 1.000000 0.726355
vertex -0.696733 -1.000000 0.673718
vertex -0.706164 -1.000000 0.726355
endloop
endfacet
facet normal -0.101627 0.000000 0.994823
outer loop
vertex -0.463978 1.000000 1.001229
vertex -0.547068 1.000000 0.992741
vertex -0.547068 -1.000000 0.992741
endloop
endfacet
facet normal -0.101628 0.000000 0.994822
outer loop
vertex -0.463978 1.000000 1.001229
vertex -0.547068 -1.000000 0.992741
vertex -0.463978 -1.000000 1.001229
endloop
endfacet
facet normal 0.672271 0.000000 0.740305
outer loop
vertex 0.571798 1.000000 0.366185
vertex 0.380287 1.000000 0.540097
vertex 0.380287 -1.000000 0.540097
endloop
endfacet
facet normal 0.672271 0.000000 0.740305
outer loop
vertex 0.571798 1.000000 0.366185
vertex 0.380287 -1.000000 0.540097
vertex 0.571798 -1.000000 0.366185
endloop
endfacet
facet normal -0.852020 0.000000 -0.523509
outer loop
vertex -0.696733 1.000000 0.673718
vertex -0.659074 1.000000 0.612428
vertex -0.659074 -1.000000 0.612428
endloop
endfacet
facet normal -0.852019 0.000000 -0.523510
outer loop
vertex -0.696733 1.000000 0.673718
vertex -0.659074 -1.000000 0.612428
vertex -0.696733 -1.000000 0.673718
endloop
endfacet
facet normal -0.313776 0.000000 0.949497
outer loop
vertex -0.547068 1.000000 0.992741
vertex -0.611752 1.000000 0.971365
vertex -0.611752 -1.000000 0.971365
endloop
endfacet
facet normal -0.313778 0.000000 0.949496
outer loop
vertex -0.547068 1.000000 0.992741
vertex -0.611752 -1.000000 0.971365
vertex -0.547068 -1.000000 0.992741
endloop
endfacet
facet normal 0.678850 0.000000 0.734277
outer loop
vertex 0.380287 1.000000 0.540097
vertex 0.253503 1.000000 0.657310
vertex 0.253503 -1.000000 0.657310
endloop
endfacet
facet normal 0.678850 0.000000 0.734277
outer loop
vertex 0.380287 1.000000 0.540097
vertex 0.253503 -1.000000 0.657310
vertex 0.380287 -1.000000 0.540097
endloop
endfacet
facet normal -0.710898 0.000000 -0.703295
outer loop
vertex -0.659074 1.000000 0.612428
vertex -0.602858 1.000000 0.555604
vertex -0.602858 -1.000000 0.555604
endloop
endfacet
facet normal -0.710897 0.000000 -0.703296
outer loop
vertex -0.659074 1.000000 0.612428
vertex -0.602858 -1.000000 0.555604
vertex -0.659074 -1.000000 0.612428
endloop
endfacet
facet normal 0.828251 0.000000 0.560357
outer loop
vertex 1.631128 1.000000 -1.021533
vertex 1.414899 1.000000 -0.701929
vertex 1.414899 -1.000000 -0.701929
endloop
endfacet
facet normal 0.828251 0.000000 0.560357
outer loop
vertex 1.631128 1.000000 -1.021533
vertex 1.414899 -1.000000 -0.701929
vertex 1.631128 -1.000000 -1.021533
endloop
endfacet
facet normal -0.582498 0.000000 0.812832
outer loop
vertex -0.611752 1.000000 0.971365
vertex -0.659927 1.000000 0.936842
vertex -0.659927 -1.000000 0.936842
endloop
endfacet
facet normal -0.582498 0.000000 0.812832
outer loop
vertex -0.611752 1.000000 0.971365
vertex -0.659927 -1.000000 0.936842
vertex -0.611752 -1.000000 0.971365
endloop
endfacet
facet normal 0.624099 0.000000 0.781345
outer loop
vertex 0.253503 1.000000 0.657310
vertex 0.068345 1.000000 0.805205
vertex 0.068345 -1.000000 0.805205
endloop
endfacet
facet normal 0.624099 0.000000 0.781345
outer loop
vertex 0.253503 1.000000 0.657310
vertex 0.068345 -1.000000 0.805205
vertex 0.253503 -1.000000 0.657310
endloop
endfacet
facet normal -0.618131 0.000000 -0.786075
outer loop
vertex -0.602858 1.000000 0.555604
vertex -0.547578 1.000000 0.512135
vertex -0.547578 -1.000000 0.512135
endloop
endfacet
facet normal -0.618130 0.000000 -0.786076
outer loop
vertex -0.602858 1.000000 0.555604
vertex -0.547578 -1.000000 0.512135
vertex -0.602858 -1.000000 0.555604
endloop
endfacet
facet normal 0.822370 0.000000 0.568953
outer loop
vertex 1.414899 1.000000 -0.701929
vertex 1.246985 1.000000 -0.459225
vertex 1.246985 -1.000000 -0.459225
endloop
endfacet
facet normal 0.822370 0.000000 0.568953
outer loop
vertex 1.414899 1.000000 -0.701929
vertex 1.246985 -1.000000 -0.459225
vertex 1.414899 -1.000000 -0.701929
endloop
endfacet
facet normal -0.835539 0.000000 0.549431
outer loop
vertex -0.659927 1.000000 0.936842
vertex -0.686371 1.000000 0.896627
vertex -0.686371 -1.000000 0.896627
endloop
endfacet
facet normal -0.835540 0.000000 0.549430
outer loop
vertex -0.659927 1.000000 0.936842
vertex -0.686371 -1.000000 0.896627
vertex -0.659927 -1.000000 0.936842
endloop
endfacet
facet normal 0.489307 0.000000 0.872112
outer loop
vertex 0.068345 1.000000 0.805205
vertex -0.103655 1.000000 0.901707
vertex -0.103655 -1.000000 0.901707
endloop
endfacet
facet normal 0.489307 0.000000 0.872112
outer loop
vertex 0.068345 1.000000 0.805205
vertex -0.103655 -1.000000 0.901707
vertex 0.068345 -1.000000 0.805205
endloop
endfacet
facet normal 0.822370 0.000000 0.568953
outer loop
vertex 1.246985 1.000000 -0.459225
vertex 1.109601 1.000000 -0.260648
vertex 1.109601 -1.000000 -0.260648
endloop
endfacet
facet normal 0.822370 0.000000 0.568953
outer loop
vertex 1.246985 1.000000 -0.459225
vertex 1.109601 -1.000000 -0.260648
vertex 1.246985 -1.000000 -0.459225
endloop
endfacet
facet normal -0.935742 0.000000 0.352686
outer loop
vertex -0.686371 1.000000 0.896627
vertex -0.704359 1.000000 0.848903
vertex -0.704359 -1.000000 0.848903
endloop
endfacet
facet normal -0.935741 0.000000 0.352687
outer loop
vertex -0.686371 1.000000 0.896627
vertex -0.704359 -1.000000 0.848903
vertex -0.686371 -1.000000 0.896627
endloop
endfacet
facet normal 0.000000 -1.000000 -0.000001
outer loop
vertex -0.547578 -1.000000 0.512135
vertex 1.631128 -1.000000 -1.021533
vertex 1.414899 -1.000000 -0.701929
endloop
endfacet
facet normal 0.000000 -1.000000 0.000000
outer loop
vertex 1.246985 -1.000000 -0.459225
vertex 1.109601 -1.000000 -0.260648
vertex 0.919854 -1.000000 -0.014032
endloop
endfacet
facet normal 0.000000 -1.000000 0.000000
outer loop
vertex -0.547578 -1.000000 0.512135
vertex 1.414899 -1.000000 -0.701929
vertex 1.246985 -1.000000 -0.459225
endloop
endfacet
facet normal 0.000000 -1.000000 0.000000
outer loop
vertex -0.659074 -1.000000 0.612428
vertex -0.602858 -1.000000 0.555604
vertex -0.547578 -1.000000 0.512135
endloop
endfacet
facet normal 0.000000 -1.000000 0.000000
outer loop
vertex -0.706164 -1.000000 0.726355
vertex -0.696733 -1.000000 0.673718
vertex -0.659074 -1.000000 0.612428
endloop
endfacet
facet normal 0.000000 -1.000000 0.000000
outer loop
vertex -0.704359 -1.000000 0.848903
vertex -0.711184 -1.000000 0.790189
vertex -0.706164 -1.000000 0.726355
endloop
endfacet
facet normal 0.000000 -1.000000 0.000000
outer loop
vertex -0.659927 -1.000000 0.936842
vertex -0.686371 -1.000000 0.896627
vertex -0.704359 -1.000000 0.848903
endloop
endfacet
facet normal 0.000000 -1.000000 0.000006
outer loop
vertex -0.547068 -1.000000 0.992741
vertex -0.611752 -1.000000 0.971365
vertex -0.659927 -1.000000 0.936842
endloop
endfacet
facet normal -0.000000 -1.000000 0.000011
outer loop
vertex -0.365871 -1.000000 0.994440
vertex -0.463978 -1.000000 1.001229
vertex -0.547068 -1.000000 0.992741
endloop
endfacet
facet normal 0.000000 -1.000000 -0.000020
outer loop
vertex -0.103655 -1.000000 0.901707
vertex -0.267851 -1.000000 0.965489
vertex -0.365871 -1.000000 0.994440
endloop
endfacet
facet normal 0.000000 -1.000000 -0.000004
outer loop
vertex 0.253503 -1.000000 0.657310
vertex 0.068345 -1.000000 0.805205
vertex -0.103655 -1.000000 0.901707
endloop
endfacet
facet normal -0.000005 -1.000000 0.000000
outer loop
vertex 0.735906 -1.000000 0.205773
vertex 0.571798 -1.000000 0.366185
vertex 0.380287 -1.000000 0.540097
endloop
endfacet
facet normal 0.000000 -1.000000 0.000005
outer loop
vertex 0.380287 -1.000000 0.540097
vertex 0.253503 -1.000000 0.657310
vertex -0.103655 -1.000000 0.901707
endloop
endfacet
facet normal -0.000000 -1.000000 0.000000
outer loop
vertex -0.103655 -1.000000 0.901707
vertex -0.365871 -1.000000 0.994440
vertex -0.547068 -1.000000 0.992741
endloop
endfacet
facet normal 0.000000 -1.000000 -0.000001
outer loop
vertex -0.547068 -1.000000 0.992741
vertex -0.659927 -1.000000 0.936842
vertex -0.704359 -1.000000 0.848903
endloop
endfacet
facet normal 0.000000 -1.000000 0.000000
outer loop
vertex -0.704359 -1.000000 0.848903
vertex -0.706164 -1.000000 0.726355
vertex -0.659074 -1.000000 0.612428
endloop
endfacet
facet normal 0.000000 -1.000000 -0.000003
outer loop
vertex -0.659074 -1.000000 0.612428
vertex -0.547578 -1.000000 0.512135
vertex 1.246985 -1.000000 -0.459225
endloop
endfacet
facet normal 0.000000 -1.000000 -0.000003
outer loop
vertex 1.246985 -1.000000 -0.459225
vertex 0.919854 -1.000000 -0.014032
vertex 0.735906 -1.000000 0.205773
endloop
endfacet
facet normal -0.000001 -1.000000 0.000000
outer loop
vertex 0.735906 -1.000000 0.205773
vertex 0.380287 -1.000000 0.540097
vertex -0.103655 -1.000000 0.901707
endloop
endfacet
facet normal -0.000000 -1.000000 0.000000
outer loop
vertex -0.103655 -1.000000 0.901707
vertex -0.547068 -1.000000 0.992741
vertex -0.704359 -1.000000 0.848903
endloop
endfacet
facet normal 0.000000 -1.000000 0.000000
outer loop
vertex -0.704359 -1.000000 0.848903
vertex -0.659074 -1.000000 0.612428
vertex 1.246985 -1.000000 -0.459225
endloop
endfacet
facet normal 0.000000 -1.000000 0.000001
outer loop
vertex 1.246985 -1.000000 -0.459225
vertex 0.735906 -1.000000 0.205773
vertex -0.103655 -1.000000 0.901707
endloop
endfacet
facet normal -0.000000 -1.000000 -0.000000
outer loop
vertex 1.246985 -1.000000 -0.459225
vertex -0.103655 -1.000000 0.901707
vertex -0.704359 -1.000000 0.848903
endloop
endfacet
facet normal 0.000000 1.000000 0.000000
outer loop
vertex 1.414899 1.000000 -0.701929
vertex 1.631128 1.000000 -1.021533
vertex -0.547578 1.000000 0.512135
endloop
endfacet
facet normal 0.000000 1.000000 0.000000
outer loop
vertex -0.547578 1.000000 0.512135
vertex -0.602858 1.000000 0.555604
vertex -0.659074 1.000000 0.612428
endloop
endfacet
facet normal 0.000000 1.000000 0.000000
outer loop
vertex -0.659074 1.000000 0.612428
vertex -0.696733 1.000000 0.673718
vertex -0.706164 1.000000 0.726355
endloop
endfacet
facet normal 0.000000 1.000000 0.000000
outer loop
vertex -0.706164 1.000000 0.726355
vertex -0.711184 1.000000 0.790189
vertex -0.704359 1.000000 0.848903
endloop
endfacet
facet normal 0.000000 1.000000 0.000000
outer loop
vertex -0.704359 1.000000 0.848903
vertex -0.686371 1.000000 0.896627
vertex -0.659927 1.000000 0.936842
endloop
endfacet
facet normal 0.000000 1.000000 0.000000
outer loop
vertex -0.659927 1.000000 0.936842
vertex -0.611752 1.000000 0.971365
vertex -0.547068 1.000000 0.992741
endloop
endfacet
facet normal 0.000000 1.000000 0.000000
outer loop
vertex -0.547068 1.000000 0.992741
vertex -0.463978 1.000000 1.001229
vertex -0.365871 1.000000 0.994440
endloop
endfacet
facet normal 0.000000 1.000000 -0.000020
outer loop
vertex -0.365871 1.000000 0.994440
vertex -0.267851 1.000000 0.965489
vertex -0.103655 1.000000 0.901707
endloop
endfacet
facet normal 0.000000 1.000000 -0.000004
outer loop
vertex -0.103655 1.000000 0.901707
vertex 0.068345 1.000000 0.805205
vertex 0.253503 1.000000 0.657310
endloop
endfacet
facet normal 0.000000 1.000000 0.000000
outer loop
vertex 0.380287 1.000000 0.540097
vertex 0.571798 1.000000 0.366185
vertex 0.735906 1.000000 0.205773
endloop
endfacet
facet normal 0.000000 1.000000 0.000005
outer loop
vertex -0.103655 1.000000 0.901707
vertex 0.253503 1.000000 0.657310
vertex 0.380287 1.000000 0.540097
endloop
endfacet
facet normal 0.000000 1.000000 0.000000
outer loop
vertex -0.547068 1.000000 0.992741
vertex -0.365871 1.000000 0.994440
vertex -0.103655 1.000000 0.901707
endloop
endfacet
facet normal 0.000000 1.000000 0.000000
outer loop
vertex -0.704359 1.000000 0.848903
vertex -0.659927 1.000000 0.936842
vertex -0.547068 1.000000 0.992741
endloop
endfacet
facet normal 0.000000 1.000000 0.000000
outer loop
vertex -0.659074 1.000000 0.612428
vertex -0.706164 1.000000 0.726355
vertex -0.704359 1.000000 0.848903
endloop
endfacet
facet normal 0.000000 1.000000 0.000002
outer loop
vertex 1.414899 1.000000 -0.701929
vertex -0.547578 1.000000 0.512135
vertex -0.659074 1.000000 0.612428
endloop
endfacet
facet normal 0.000000 1.000000 0.000000
outer loop
vertex 0.919854 1.000000 -0.014032
vertex 1.109601 1.000000 -0.260648
vertex 1.246985 1.000000 -0.459225
endloop
endfacet
facet normal 0.000000 1.000000 0.000000
outer loop
vertex 1.246985 1.000000 -0.459225
vertex 1.414899 1.000000 -0.701929
vertex -0.659074 1.000000 0.612428
endloop
endfacet
facet normal 0.000000 1.000000 0.000000
outer loop
vertex -0.659074 1.000000 0.612428
vertex -0.704359 1.000000 0.848903
vertex -0.547068 1.000000 0.992741
endloop
endfacet
facet normal 0.000000 1.000000 0.000000
outer loop
vertex -0.547068 1.000000 0.992741
vertex -0.103655 1.000000 0.901707
vertex 0.380287 1.000000 0.540097
endloop
endfacet
facet normal 0.000000 1.000000 0.000000
outer loop
vertex 0.380287 1.000000 0.540097
vertex 0.735906 1.000000 0.205773
vertex 0.919854 1.000000 -0.014032
endloop
endfacet
facet normal 0.000000 1.000000 0.000000
outer loop
vertex 0.919854 1.000000 -0.014032
vertex 1.246985 1.000000 -0.459225
vertex -0.659074 1.000000 0.612428
endloop
endfacet
facet normal 0.000000 1.000000 0.000000
outer loop
vertex -0.659074 1.000000 0.612428
vertex -0.547068 1.000000 0.992741
vertex 0.380287 1.000000 0.540097
endloop
endfacet
facet normal 0.000000 1.000000 0.000000
outer loop
vertex -0.659074 1.000000 0.612428
vertex 0.380287 1.000000 0.540097
vertex 0.919854 1.000000 -0.014032
endloop
endfacet
endsolid Exported from Blender-3.3.3
