solid Exported from Blender-3.3.3
facet normal 0.056321 0.000000 0.998413
outer loop
vertex -0.222716 1.000000 0.580698
vertex -0.398586 1.000000 0.590619
vertex -0.398586 -1.000000 0.590619
endloop
endfacet
facet normal 0.056321 0.000000 0.998413
outer loop
vertex -0.222716 1.000000 0.580698
vertex -0.398586 -1.000000 0.590619
vertex -0.222716 -1.000000 0.580698
endloop
endfacet
facet normal -0.294758 0.000000 -0.955572
outer loop
vertex -0.524527 1.000000 0.073013
vertex 2.021475 1.000000 -0.712334
vertex 2.021475 -1.000000 -0.712334
endloop
endfacet
facet normal -0.294758 0.000000 -0.955572
outer loop
vertex -0.524527 1.000000 0.073013
vertex 2.021475 -1.000000 -0.712334
vertex -0.524527 -1.000000 0.073013
endloop
endfacet
facet normal 0.565332 0.000000 0.824864
outer loop
vertex 1.290346 1.000000 -0.149851
vertex 1.033678 1.000000 0.026060
vertex 1.033678 -1.000000 0.026060
endloop
endfacet
facet normal 0.565332 0.000000 0.824864
outer loop
vertex 1.290346 1.000000 -0.149851
vertex 1.033678 -1.000000 0.026060
vertex 1.290346 -1.000000 -0.149851
endloop
endfacet
facet normal -0.980376 0.000000 -0.197137
outer loop
vertex -0.777702 1.000000 0.344851
vertex -0.766049 1.000000 0.286901
vertex -0.766049 -1.000000 0.286901
endloop
endfacet
facet normal -0.980376 0.000000 -0.197137
outer loop
vertex -0.777702 1.000000 0.344851
vertex -0.766049 -1.000000 0.286901
vertex -0.777702 -1.000000 0.344851
endloop
endfacet
facet normal -0.026966 0.000000 0.999636
outer loop
vertex -0.398586 1.000000 0.590619
vertex -0.500754 1.000000 0.587863
vertex -0.500754 -1.000000 0.587863
endloop
endfacet
facet normal -0.026966 0.000000 0.999636
outer loop
vertex -0.398586 1.000000 0.590619
vertex -0.500754 -1.000000 0.587863
vertex -0.398586 -1.000000 0.590619
endloop
endfacet
facet normal 0.531031 0.000000 0.847353
outer loop
vertex 1.033678 1.000000 0.026060
vertex 0.790809 1.000000 0.178264
vertex 0.790809 -1.000000 0.178264
endloop
endfacet
facet normal 0.531031 0.000000 0.847353
outer loop
vertex 1.033678 1.000000 0.026060
vertex 0.790809 -1.000000 0.178264
vertex 1.033678 -1.000000 0.026060
endloop
endfacet
facet normal -0.923904 0.000000 -0.382623
outer loop
vertex -0.766049 1.000000 0.286901
vertex -0.741549 1.000000 0.227743
vertex -0.741549 -1.000000 0.227743
endloop
endfacet
facet normal -0.923904 0.000000 -0.382623
outer loop
vertex -0.766049 1.000000 0.286901
vertex -0.741549 -1.000000 0.227743
vertex -0.766049 -1.000000 0.286901
endloop
endfacet
facet normal -0.242618 0.000000 0.970122
outer loop
vertex -0.500754 1.000000 0.587863
vertex -0.596158 1.000000 0.564003
vertex -0.596158 -1.000000 0.564003
endloop
endfacet
facet normal -0.242618 0.000000 0.970122
outer loop
vertex -0.500754 1.000000 0.587863
vertex -0.596158 -1.000000 0.564003
vertex -0.500754 -1.000000 0.587863
endloop
endfacet
facet normal 0.443812 0.000000 0.896120
outer loop
vertex 0.790809 1.000000 0.178264
vertex 0.585164 1.000000 0.280112
vertex 0.585164 -1.000000 0.280112
endloop
endfacet
facet normal 0.443812 0.000000 0.896120
outer loop
vertex 0.790809 1.000000 0.178264
vertex 0.585164 -1.000000 0.280112
vertex 0.790809 -1.000000 0.178264
endloop
endfacet
facet normal -0.881648 0.000000 -0.471908
outer loop
vertex -0.741549 1.000000 0.227743
vertex -0.716314 1.000000 0.180597
vertex -0.716314 -1.000000 0.180597
endloop
endfacet
facet normal -0.881648 0.000000 -0.471908
outer loop
vertex -0.741549 1.000000 0.227743
vertex -0.716314 -1.000000 0.180597
vertex -0.741549 -1.000000 0.227743
endloop
endfacet
facet normal -0.404071 0.000000 0.914728
outer loop
vertex -0.596158 1.000000 0.564003
vertex -0.672558 1.000000 0.530254
vertex -0.672558 -1.000000 0.530254
endloop
endfacet
facet normal -0.404071 0.000000 0.914728
outer loop
vertex -0.596158 1.000000 0.564003
vertex -0.672558 -1.000000 0.530254
vertex -0.596158 -1.000000 0.564003
endloop
endfacet
facet normal 0.410601 0.000000 0.911815
outer loop
vertex 0.585164 1.000000 0.280112
vertex 0.349284 1.000000 0.386332
vertex 0.349284 -1.000000 0.386332
endloop
endfacet
facet normal 0.410601 0.000000 0.911815
outer loop
vertex 0.585164 1.000000 0.280112
vertex 0.349284 -1.000000 0.386332
vertex 0.585164 -1.000000 0.280112
endloop
endfacet
facet normal -0.648545 0.000000 -0.761176
outer loop
vertex -0.716314 1.000000 0.180597
vertex -0.661559 1.000000 0.133943
vertex -0.661559 -1.000000 0.133943
endloop
endfacet
facet normal -0.648546 0.000000 -0.761176
outer loop
vertex -0.716314 1.000000 0.180597
vertex -0.661559 -1.000000 0.133943
vertex -0.716314 -1.000000 0.180597
endloop
endfacet
facet normal -0.591830 0.000000 0.806063
outer loop
vertex -0.672558 1.000000 0.530254
vertex -0.727471 1.000000 0.489936
vertex -0.727471 -1.000000 0.489936
endloop
endfacet
facet normal -0.591830 0.000000 0.806063
outer loop
vertex -0.672558 1.000000 0.530254
vertex -0.727471 -1.000000 0.489936
vertex -0.672558 -1.000000 0.530254
endloop
endfacet
facet normal 0.418721 0.000000 0.908115
outer loop
vertex 0.349284 1.000000 0.386332
vertex 0.192484 1.000000 0.458630
vertex 0.192484 -1.000000 0.458630
endloop
endfacet
facet normal 0.418721 0.000000 0.908115
outer loop
vertex 0.349284 1.000000 0.386332
vertex 0.192484 -1.000000 0.458630
vertex 0.349284 -1.000000 0.386332
endloop
endfacet
facet normal -0.458773 0.000000 -0.888553
outer loop
vertex -0.661559 1.000000 0.133943
vertex -0.590535 1.000000 0.097272
vertex -0.590535 -1.000000 0.097272
endloop
endfacet
facet normal -0.458773 0.000000 -0.888553
outer loop
vertex -0.661559 1.000000 0.133943
vertex -0.590535 -1.000000 0.097272
vertex -0.661559 -1.000000 0.133943
endloop
endfacet
facet normal 0.614554 0.000000 0.788875
outer loop
vertex 2.021475 1.000000 -0.712334
vertex 1.717065 1.000000 -0.475192
vertex 1.717065 -1.000000 -0.475192
endloop
endfacet
facet normal 0.614554 0.000000 0.788875
outer loop
vertex 2.021475 1.000000 -0.712334
vertex 1.717065 -1.000000 -0.475192
vertex 2.021475 -1.000000 -0.712334
endloop
endfacet
facet normal -0.805168 0.000000 0.593047
outer loop
vertex -0.727471 1.000000 0.489936
vertex -0.762619 1.000000 0.442216
vertex -0.762619 -1.000000 0.442216
endloop
endfacet
facet normal -0.805168 0.000000 0.593047
outer loop
vertex -0.727471 1.000000 0.489936
vertex -0.762619 -1.000000 0.442216
vertex -0.727471 -1.000000 0.489936
endloop
endfacet
facet normal 0.352104 0.000000 0.935961
outer loop
vertex 0.192484 1.000000 0.458630
vertex -0.029313 1.000000 0.542070
vertex -0.029313 -1.000000 0.542070
endloop
endfacet
facet normal 0.352104 0.000000 0.935961
outer loop
vertex 0.192484 1.000000 0.458630
vertex -0.029313 -1.000000 0.542070
vertex 0.192484 -1.000000 0.458630
endloop
endfacet
facet normal -0.344966 0.000000 -0.938615
outer loop
vertex -0.590535 1.000000 0.097272
vertex -0.524527 1.000000 0.073013
vertex -0.524527 -1.000000 0.073013
endloop
endfacet
facet normal -0.344966 0.000000 -0.938615
outer loop
vertex -0.590535 1.000000 0.097272
vertex -0.524527 -1.000000 0.073013
vertex -0.590535 -1.000000 0.097272
endloop
endfacet
facet normal 0.606304 0.000000 0.795233
outer loop
vertex 1.717065 1.000000 -0.475192
vertex 1.482370 1.000000 -0.296254
vertex 1.482370 -1.000000 -0.296254
endloop
endfacet
facet normal 0.606304 0.000000 0.795233
outer loop
vertex 1.717065 1.000000 -0.475192
vertex 1.482370 -1.000000 -0.296254
vertex 1.717065 -1.000000 -0.475192
endloop
endfacet
facet normal -0.964428 0.000000 0.264344
outer loop
vertex -0.762619 1.000000 0.442216
vertex -0.775342 1.000000 0.395797
vertex -0.775342 -1.000000 0.395797
endloop
endfacet
facet normal -0.964428 0.000000 0.264344
outer loop
vertex -0.762619 1.000000 0.442216
vertex -0.775342 -1.000000 0.395797
vertex -0.762619 -1.000000 0.442216
endloop
endfacet
facet normal 0.195861 0.000000 0.980632
outer loop
vertex -0.029313 1.000000 0.542070
vertex -0.222716 1.000000 0.580698
vertex -0.222716 -1.000000 0.580698
endloop
endfacet
facet normal 0.195861 0.000000 0.980632
outer loop
vertex -0.029313 1.000000 0.542070
vertex -0.222716 -1.000000 0.580698
vertex -0.029313 -1.000000 0.542070
endloop
endfacet
facet normal 0.606304 0.000000 0.795233
outer loop
vertex 1.482370 1.000000 -0.296254
vertex 1.290346 1.000000 -0.149851
vertex 1.290346 -1.000000 -0.149851
endloop
endfacet
facet normal 0.606304 0.000000 0.795233
outer loop
vertex 1.482370 1.000000 -0.296254
vertex 1.290346 -1.000000 -0.149851
vertex 1.482370 -1.000000 -0.296254
endloop
endfacet
facet normal -0.998929 0.000000 0.046264
outer loop
vertex -0.775342 1.000000 0.395797
vertex -0.777702 1.000000 0.344851
vertex -0.777702 -1.000000 0.344851
endloop
endfacet
facet normal -0.998929 0.000000 0.046264
outer loop
vertex -0.775342 1.000000 0.395797
vertex -0.777702 -1.000000 0.344851
vertex -0.775342 -1.000000 0.395797
endloop
endfacet
facet normal 0.000000 -1.000000 0.000000
outer loop
vertex -0.524527 -1.000000 0.073013
vertex 2.021475 -1.000000 -0.712334
vertex 1.717065 -1.000000 -0.475192
endloop
endfacet
facet normal 0.000000 -1.000000 0.000016
outer loop
vertex 1.482370 -1.000000 -0.296254
vertex 1.290346 -1.000000 -0.149851
vertex 1.033678 -1.000000 0.026060
endloop
endfacet
facet normal 0.000000 -1.000000 0.000000
outer loop
vertex -0.524527 -1.000000 0.073013
vertex 1.717065 -1.000000 -0.475192
vertex 1.482370 -1.000000 -0.296254
endloop
endfacet
facet normal 0.000000 -1.000000 0.000000
outer loop
vertex -0.661559 -1.000000 0.133943
vertex -0.590535 -1.000000 0.097272
vertex -0.524527 -1.000000 0.073013
endloop
endfacet
facet normal 0.000000 -1.000000 0.000005
outer loop
vertex -0.741549 -1.000000 0.227743
vertex -0.716314 -1.000000 0.180597
vertex -0.661559 -1.000000 0.133943
endloop
endfacet
facet normal 0.000000 -1.000000 0.000005
outer loop
vertex -0.777702 -1.000000 0.344851
vertex -0.766049 -1.000000 0.286901
vertex -0.741549 -1.000000 0.227743
endloop
endfacet
facet normal 0.000000 -1.000000 0.000001
outer loop
vertex -0.762619 -1.000000 0.442216
vertex -0.775342 -1.000000 0.395797
vertex -0.777702 -1.000000 0.344851
endloop
endfacet
facet normal 0.000000 -1.000000 0.000000
outer loop
vertex -0.672558 -1.000000 0.530254
vertex -0.727471 -1.000000 0.489936
vertex -0.762619 -1.000000 0.442216
endloop
endfacet
facet normal -0.000001 -1.000000 0.000011
outer loop
vertex -0.500754 -1.000000 0.587863
vertex -0.596158 -1.000000 0.564003
vertex -0.672558 -1.000000 0.530254
endloop
endfacet
facet normal 0.000000 -1.000000 0.000000
outer loop
vertex -0.222716 -1.000000 0.580698
vertex -0.398586 -1.000000 0.590619
vertex -0.500754 -1.000000 0.587863
endloop
endfacet
facet normal 0.000000 -1.000000 0.000000
outer loop
vertex 0.192484 -1.000000 0.458630
vertex -0.029313 -1.000000 0.542070
vertex -0.222716 -1.000000 0.580698
endloop
endfacet
facet normal -0.000003 -1.000000 0.000000
outer loop
vertex 0.790809 -1.000000 0.178264
vertex 0.585164 -1.000000 0.280112
vertex 0.349284 -1.000000 0.386332
endloop
endfacet
facet normal 0.000000 -1.000000 0.000005
outer loop
vertex 0.349284 -1.000000 0.386332
vertex 0.192484 -1.000000 0.458630
vertex -0.222716 -1.000000 0.580698
endloop
endfacet
facet normal -0.000000 -1.000000 0.000000
outer loop
vertex -0.222716 -1.000000 0.580698
vertex -0.500754 -1.000000 0.587863
vertex -0.672558 -1.000000 0.530254
endloop
endfacet
facet normal 0.000000 -1.000000 0.000000
outer loop
vertex -0.672558 -1.000000 0.530254
vertex -0.762619 -1.000000 0.442216
vertex -0.777702 -1.000000 0.344851
endloop
endfacet
facet normal 0.000000 -1.000000 -0.000002
outer loop
vertex -0.777702 -1.000000 0.344851
vertex -0.741549 -1.000000 0.227743
vertex -0.661559 -1.000000 0.133943
endloop
endfacet
facet normal 0.000000 -1.000000 0.000000
outer loop
vertex -0.661559 -1.000000 0.133943
vertex -0.524527 -1.000000 0.073013
vertex 1.482370 -1.000000 -0.296254
endloop
endfacet
facet normal 0.000000 -1.000000 -0.000003
outer loop
vertex 1.482370 -1.000000 -0.296254
vertex 1.033678 -1.000000 0.026060
vertex 0.790809 -1.000000 0.178264
endloop
endfacet
facet normal -0.000000 -1.000000 0.000000
outer loop
vertex 0.790809 -1.000000 0.178264
vertex 0.349284 -1.000000 0.386332
vertex -0.222716 -1.000000 0.580698
endloop
endfacet
facet normal -0.000000 -1.000000 0.000000
outer loop
vertex -0.222716 -1.000000 0.580698
vertex -0.672558 -1.000000 0.530254
vertex -0.777702 -1.000000 0.344851
endloop
endfacet
facet normal 0.000000 -1.000000 -0.000001
outer loop
vertex -0.777702 -1.000000 0.344851
vertex -0.661559 -1.000000 0.133943
vertex 1.482370 -1.000000 -0.296254
endloop
endfacet
facet normal 0.000000 -1.000000 0.000000
outer loop
vertex 1.482370 -1.000000 -0.296254
vertex 0.790809 -1.000000 0.178264
vertex -0.222716 -1.000000 0.580698
endloop
endfacet
facet normal -0.000000 -1.000000 -0.000001
outer loop
vertex 1.482370 -1.000000 -0.296254
vertex -0.222716 -1.000000 0.580698
vertex -0.777702 -1.000000 0.344851
endloop
endfacet
facet normal 0.000000 1.000000 0.000000
outer loop
vertex 1.717065 1.000000 -0.475192
vertex 2.021475 1.000000 -0.712334
vertex -0.524527 1.000000 0.073013
endloop
endfacet
facet normal 0.000000 1.000000 0.000000
outer loop
vertex -0.524527 1.000000 0.073013
vertex -0.590535 1.000000 0.097272
vertex -0.661559 1.000000 0.133943
endloop
endfacet
facet normal 0.000000 1.000000 0.000000
outer loop
vertex -0.661559 1.000000 0.133943
vertex -0.716314 1.000000 0.180597
vertex -0.741549 1.000000 0.227743
endloop
endfacet
facet normal 0.000000 1.000000 0.000000
outer loop
vertex -0.741549 1.000000 0.227743
vertex -0.766049 1.000000 0.286901
vertex -0.777702 1.000000 0.344851
endloop
endfacet
facet normal 0.000000 1.000000 0.000000
outer loop
vertex -0.777702 1.000000 0.344851
vertex -0.775342 1.000000 0.395797
vertex -0.762619 1.000000 0.442216
endloop
endfacet
facet normal 0.000000 1.000000 0.000000
outer loop
vertex -0.762619 1.000000 0.442216
vertex -0.727471 1.000000 0.489936
vertex -0.672558 1.000000 0.530254
endloop
endfacet
facet normal 0.000000 1.000000 0.000000
outer loop
vertex -0.672558 1.000000 0.530254
vertex -0.596158 1.000000 0.564003
vertex -0.500754 1.000000 0.587863
endloop
endfacet
facet normal 0.000000 1.000000 0.000000
outer loop
vertex -0.500754 1.000000 0.587863
vertex -0.398586 1.000000 0.590619
vertex -0.222716 1.000000 0.580698
endloop
endfacet
facet normal 0.000000 1.000000 0.000000
outer loop
vertex -0.222716 1.000000 0.580698
vertex -0.029313 1.000000 0.542070
vertex 0.192484 1.000000 0.458630
endloop
endfacet
facet normal 0.000000 1.000000 0.000000
outer loop
vertex 0.349284 1.000000 0.386332
vertex 0.585164 1.000000 0.280112
vertex 0.790809 1.000000 0.178264
endloop
endfacet
facet normal 0.000000 1.000000 0.000005
outer loop
vertex -0.222716 1.000000 0.580698
vertex 0.192484 1.000000 0.458630
vertex 0.349284 1.000000 0.386332
endloop
endfacet
facet normal 0.000000 1.000000 0.000000
outer loop
vertex -0.672558 1.000000 0.530254
vertex -0.500754 1.000000 0.587863
vertex -0.222716 1.000000 0.580698
endloop
endfacet
facet normal 0.000000 1.000000 0.000000
outer loop
vertex -0.777702 1.000000 0.344851
vertex -0.762619 1.000000 0.442216
vertex -0.672558 1.000000 0.530254
endloop
endfacet
facet normal 0.000000 1.000000 0.000000
outer loop
vertex -0.661559 1.000000 0.133943
vertex -0.741549 1.000000 0.227743
vertex -0.777702 1.000000 0.344851
endloop
endfacet
facet normal 0.000000 1.000000 -0.000002
outer loop
vertex 1.717065 1.000000 -0.475192
vertex -0.524527 1.000000 0.073013
vertex -0.661559 1.000000 0.133943
endloop
endfacet
facet normal 0.000000 1.000000 0.000000
outer loop
vertex 1.290346 1.000000 -0.149851
vertex 1.482370 1.000000 -0.296254
vertex 1.717065 1.000000 -0.475192
endloop
endfacet
facet normal 0.000000 1.000000 0.000000
outer loop
vertex 0.790809 1.000000 0.178264
vertex 1.033678 1.000000 0.026060
vertex 1.290346 1.000000 -0.149851
endloop
endfacet
facet normal 0.000000 1.000000 0.000002
outer loop
vertex -0.222716 1.000000 0.580698
vertex 0.349284 1.000000 0.386332
vertex 0.790809 1.000000 0.178264
endloop
endfacet
facet normal 0.000000 1.000000 0.000000
outer loop
vertex -0.777702 1.000000 0.344851
vertex -0.672558 1.000000 0.530254
vertex -0.222716 1.000000 0.580698
endloop
endfacet
facet normal 0.000000 1.000000 -0.000001
outer loop
vertex 1.717065 1.000000 -0.475192
vertex -0.661559 1.000000 0.133943
vertex -0.777702 1.000000 0.344851
endloop
endfacet
facet normal 0.000000 1.000000 0.000000
outer loop
vertex 0.790809 1.000000 0.178264
vertex 1.290346 1.000000 -0.149851
vertex 1.717065 1.000000 -0.475192
endloop
endfacet
facet normal 0.000000 1.000000 0.000000
outer loop
vertex -0.777702 1.000000 0.344851
vertex -0.222716 1.000000 0.580698
vertex 0.790809 1.000000 0.178264
endloop
endfacet
facet normal 0.000000 1.000000 0.000000
outer loop
vertex -0.777702 1.000000 0.344851
vertex 0.790809 1.000000 0.178264
vertex 1.717065 1.000000 -0.475192
endloop
endfacet
endsolid Exported from Blender-3.3.3
