solid Exported from Blender-3.3.3
facet normal 0.000000 0.391247 0.920286
outer loop
vertex -0.421307 0.238351 0.139339
vertex 0.421307 0.238351 0.139339
vertex 0.421307 0.777311 -0.089793
endloop
endfacet
facet normal 0.000000 0.391247 0.920286
outer loop
vertex -0.421307 0.238351 0.139339
vertex 0.421307 0.777311 -0.089793
vertex -0.421307 0.777311 -0.089793
endloop
endfacet
facet normal 0.000000 -0.223617 0.974677
outer loop
vertex -0.421307 -0.204020 0.153753
vertex 0.421307 -0.204020 0.153753
vertex 0.421307 -0.175450 0.160308
endloop
endfacet
facet normal -0.000000 -0.223617 0.974677
outer loop
vertex -0.421307 -0.204020 0.153753
vertex 0.421307 -0.175450 0.160308
vertex -0.421307 -0.175450 0.160308
endloop
endfacet
facet normal 0.000000 -0.440472 -0.897766
outer loop
vertex -0.421307 -0.206363 -0.002736
vertex 0.421307 -0.206363 -0.002736
vertex 0.421307 -0.231364 0.009530
endloop
endfacet
facet normal -0.000000 -0.440473 -0.897766
outer loop
vertex -0.421307 -0.206363 -0.002736
vertex 0.421307 -0.231364 0.009530
vertex -0.421307 -0.231364 0.009530
endloop
endfacet
facet normal 1.000000 0.000000 0.000000
outer loop
vertex 0.421307 -0.231364 0.009530
vertex 0.421307 -0.206363 -0.002736
vertex 0.421307 -0.151571 -0.026782
endloop
endfacet
facet normal 1.000000 -0.000007 0.000000
outer loop
vertex 0.421307 -0.151571 -0.026782
vertex 0.421307 -0.085997 -0.050636
vertex 0.421307 -0.014109 -0.072673
endloop
endfacet
facet normal 1.000000 0.000000 0.000000
outer loop
vertex 0.421307 -0.014109 -0.072673
vertex 0.421307 0.059193 -0.091392
vertex 0.421307 0.128914 -0.105517
endloop
endfacet
facet normal 1.000000 0.000001 0.000000
outer loop
vertex 0.421307 0.128914 -0.105517
vertex 0.421307 0.190303 -0.114084
vertex 0.421307 0.767102 -0.143637
endloop
endfacet
facet normal 1.000000 0.000000 0.000000
outer loop
vertex 0.421307 0.767102 -0.143637
vertex 0.421307 0.815213 -0.147151
vertex 0.421307 0.846007 -0.146459
endloop
endfacet
facet normal 1.000000 0.000004 0.000000
outer loop
vertex 0.421307 0.846007 -0.146459
vertex 0.421307 0.858516 -0.135644
vertex 0.421307 0.850461 -0.122970
endloop
endfacet
facet normal 1.000000 0.000000 0.000000
outer loop
vertex 0.421307 0.850461 -0.122970
vertex 0.421307 0.822763 -0.107331
vertex 0.421307 0.777311 -0.089793
endloop
endfacet
facet normal 1.000000 0.000000 0.000000
outer loop
vertex 0.421307 0.777311 -0.089793
vertex 0.421307 0.238351 0.139339
vertex 0.421307 0.178419 0.155587
endloop
endfacet
facet normal 1.000000 -0.000001 0.000000
outer loop
vertex 0.421307 0.178419 0.155587
vertex 0.421307 0.108269 0.167447
vertex 0.421307 0.032681 0.174111
endloop
endfacet
facet normal 1.000000 -0.000001 0.000000
outer loop
vertex 0.421307 0.032681 0.174111
vertex 0.421307 -0.043193 0.175123
vertex 0.421307 -0.114183 0.170415
endloop
endfacet
facet normal 1.000000 0.000008 0.000000
outer loop
vertex 0.421307 -0.114183 0.170415
vertex 0.421307 -0.175450 0.160308
vertex 0.421307 -0.204020 0.153753
endloop
endfacet
facet normal 1.000000 -0.000003 0.000000
outer loop
vertex 0.421307 -0.204020 0.153753
vertex 0.421307 -0.252284 0.137147
vertex 0.421307 -0.285151 0.113383
endloop
endfacet
facet normal 1.000000 -0.000003 0.000000
outer loop
vertex 0.421307 -0.285151 0.113383
vertex 0.421307 -0.300380 0.084081
vertex 0.421307 -0.295877 0.056812
endloop
endfacet
facet normal 1.000000 0.000000 0.000000
outer loop
vertex 0.421307 -0.295877 0.056812
vertex 0.421307 -0.271951 0.033419
vertex 0.421307 -0.231364 0.009530
endloop
endfacet
facet normal 1.000000 0.000000 0.000000
outer loop
vertex 0.421307 -0.231364 0.009530
vertex 0.421307 -0.151571 -0.026782
vertex 0.421307 -0.014109 -0.072673
endloop
endfacet
facet normal 1.000000 0.000000 0.000000
outer loop
vertex 0.421307 -0.014109 -0.072673
vertex 0.421307 0.128914 -0.105517
vertex 0.421307 0.767102 -0.143637
endloop
endfacet
facet normal 1.000000 -0.000001 0.000000
outer loop
vertex 0.421307 0.767102 -0.143637
vertex 0.421307 0.846007 -0.146459
vertex 0.421307 0.850461 -0.122970
endloop
endfacet
facet normal 1.000000 0.000000 0.000000
outer loop
vertex 0.421307 0.850461 -0.122970
vertex 0.421307 0.777311 -0.089793
vertex 0.421307 0.178419 0.155587
endloop
endfacet
facet normal 1.000000 0.000000 0.000000
outer loop
vertex 0.421307 0.178419 0.155587
vertex 0.421307 0.032681 0.174111
vertex 0.421307 -0.114183 0.170415
endloop
endfacet
facet normal 1.000000 0.000000 0.000000
outer loop
vertex 0.421307 -0.114183 0.170415
vertex 0.421307 -0.204020 0.153753
vertex 0.421307 -0.285151 0.113383
endloop
endfacet
facet normal 1.000000 0.000000 0.000000
outer loop
vertex 0.421307 -0.285151 0.113383
vertex 0.421307 -0.295877 0.056812
vertex 0.421307 -0.231364 0.009530
endloop
endfacet
facet normal 1.000000 0.000000 0.000000
outer loop
vertex 0.421307 -0.231364 0.009530
vertex 0.421307 -0.014109 -0.072673
vertex 0.421307 0.767102 -0.143637
endloop
endfacet
facet normal 1.000000 0.000000 0.000000
outer loop
vertex 0.421307 0.767102 -0.143637
vertex 0.421307 0.850461 -0.122970
vertex 0.421307 0.178419 0.155587
endloop
endfacet
facet normal 1.000000 0.000000 0.000000
outer loop
vertex 0.421307 0.178419 0.155587
vertex 0.421307 -0.114183 0.170415
vertex 0.421307 -0.285151 0.113383
endloop
endfacet
facet normal 1.000000 -0.000000 0.000000
outer loop
vertex 0.421307 -0.285151 0.113383
vertex 0.421307 -0.231364 0.009530
vertex 0.421307 0.767102 -0.143637
endloop
endfacet
facet normal 1.000000 0.000000 0.000000
outer loop
vertex 0.421307 0.767102 -0.143637
vertex 0.421307 0.178419 0.155587
vertex 0.421307 -0.285151 0.113383
endloop
endfacet
facet normal 0.000000 -0.051169 -0.998690
outer loop
vertex -0.421307 0.767102 -0.143637
vertex 0.421307 0.767102 -0.143637
vertex 0.421307 0.190303 -0.114084
endloop
endfacet
facet normal 0.000000 -0.051169 -0.998690
outer loop
vertex -0.421307 0.767102 -0.143637
vertex 0.421307 0.190303 -0.114084
vertex -0.421307 0.190303 -0.114084
endloop
endfacet
facet normal 0.000000 0.359981 0.932960
outer loop
vertex -0.421307 0.777311 -0.089793
vertex 0.421307 0.777311 -0.089793
vertex 0.421307 0.822763 -0.107331
endloop
endfacet
facet normal -0.000000 0.359982 0.932959
outer loop
vertex -0.421307 0.777311 -0.089793
vertex 0.421307 0.822763 -0.107331
vertex -0.421307 0.822763 -0.107331
endloop
endfacet
facet normal -0.000000 0.491671 0.870781
outer loop
vertex -0.421307 0.822763 -0.107331
vertex 0.421307 0.822763 -0.107331
vertex 0.421307 0.850461 -0.122970
endloop
endfacet
facet normal 0.000000 0.491672 0.870781
outer loop
vertex -0.421307 0.822763 -0.107331
vertex 0.421307 0.850461 -0.122970
vertex -0.421307 0.850461 -0.122970
endloop
endfacet
facet normal 0.000000 0.843971 0.536389
outer loop
vertex -0.421307 0.850461 -0.122970
vertex 0.421307 0.850461 -0.122970
vertex 0.421307 0.858516 -0.135644
endloop
endfacet
facet normal 0.000000 0.843971 0.536388
outer loop
vertex -0.421307 0.850461 -0.122970
vertex 0.421307 0.858516 -0.135644
vertex -0.421307 0.858516 -0.135644
endloop
endfacet
facet normal 0.000000 0.654033 -0.756466
outer loop
vertex -0.421307 0.858516 -0.135644
vertex 0.421307 0.858516 -0.135644
vertex 0.421307 0.846007 -0.146459
endloop
endfacet
facet normal -0.000000 0.654033 -0.756466
outer loop
vertex -0.421307 0.858516 -0.135644
vertex 0.421307 0.846007 -0.146459
vertex -0.421307 0.846007 -0.146460
endloop
endfacet
facet normal 0.000000 0.022464 -0.999748
outer loop
vertex -0.421307 0.846007 -0.146460
vertex 0.421307 0.846007 -0.146459
vertex 0.421307 0.815213 -0.147151
endloop
endfacet
facet normal 0.000000 0.022463 -0.999748
outer loop
vertex -0.421307 0.846007 -0.146460
vertex 0.421307 0.815213 -0.147151
vertex -0.421307 0.815213 -0.147151
endloop
endfacet
facet normal 0.000000 -0.072845 -0.997343
outer loop
vertex -0.421307 0.815213 -0.147151
vertex 0.421307 0.815213 -0.147151
vertex 0.421307 0.767102 -0.143637
endloop
endfacet
facet normal 0.000000 -0.072845 -0.997343
outer loop
vertex -0.421307 0.815213 -0.147151
vertex 0.421307 0.767102 -0.143637
vertex -0.421307 0.767102 -0.143637
endloop
endfacet
facet normal 0.000000 -0.401855 -0.915703
outer loop
vertex 0.421307 -0.206363 -0.002736
vertex -0.421307 -0.206363 -0.002736
vertex -0.421307 -0.151571 -0.026782
endloop
endfacet
facet normal 0.000000 -0.401855 -0.915703
outer loop
vertex 0.421307 -0.206363 -0.002736
vertex -0.421307 -0.151571 -0.026782
vertex 0.421307 -0.151571 -0.026782
endloop
endfacet
facet normal 0.000000 -0.341858 -0.939752
outer loop
vertex 0.421307 -0.151571 -0.026782
vertex -0.421307 -0.151571 -0.026782
vertex -0.421307 -0.085997 -0.050636
endloop
endfacet
facet normal 0.000000 -0.341858 -0.939752
outer loop
vertex 0.421307 -0.151571 -0.026782
vertex -0.421307 -0.085997 -0.050636
vertex 0.421307 -0.085997 -0.050636
endloop
endfacet
facet normal 0.000000 -0.293091 -0.956084
outer loop
vertex 0.421307 -0.085997 -0.050636
vertex -0.421307 -0.085997 -0.050636
vertex -0.421307 -0.014109 -0.072673
endloop
endfacet
facet normal 0.000000 -0.293092 -0.956084
outer loop
vertex 0.421307 -0.085997 -0.050636
vertex -0.421307 -0.014109 -0.072673
vertex 0.421307 -0.014109 -0.072673
endloop
endfacet
facet normal 0.000000 -0.247426 -0.968907
outer loop
vertex 0.421307 -0.014109 -0.072673
vertex -0.421307 -0.014109 -0.072673
vertex -0.421307 0.059193 -0.091392
endloop
endfacet
facet normal 0.000000 -0.247426 -0.968907
outer loop
vertex 0.421307 -0.014109 -0.072673
vertex -0.421307 0.059193 -0.091392
vertex 0.421307 0.059193 -0.091392
endloop
endfacet
facet normal 0.000000 -0.198553 -0.980090
outer loop
vertex 0.421307 0.059193 -0.091392
vertex -0.421307 0.059193 -0.091392
vertex -0.421307 0.128914 -0.105517
endloop
endfacet
facet normal 0.000000 -0.198553 -0.980090
outer loop
vertex 0.421307 0.059193 -0.091392
vertex -0.421307 0.128914 -0.105517
vertex 0.421307 0.128914 -0.105517
endloop
endfacet
facet normal 0.000000 -0.138224 -0.990401
outer loop
vertex 0.421307 0.128914 -0.105517
vertex -0.421307 0.128914 -0.105517
vertex -0.421307 0.190303 -0.114084
endloop
endfacet
facet normal 0.000000 -0.138224 -0.990401
outer loop
vertex 0.421307 0.128914 -0.105517
vertex -0.421307 0.190303 -0.114084
vertex 0.421307 0.190303 -0.114084
endloop
endfacet
facet normal -0.000000 -0.325355 0.945592
outer loop
vertex 0.421307 -0.204020 0.153753
vertex -0.421307 -0.204020 0.153753
vertex -0.421307 -0.252284 0.137147
endloop
endfacet
facet normal 0.000000 -0.325355 0.945592
outer loop
vertex 0.421307 -0.204020 0.153753
vertex -0.421307 -0.252284 0.137147
vertex 0.421307 -0.252284 0.137147
endloop
endfacet
facet normal 0.000000 -0.585924 0.810366
outer loop
vertex 0.421307 -0.252284 0.137147
vertex -0.421307 -0.252284 0.137147
vertex -0.421307 -0.285151 0.113383
endloop
endfacet
facet normal -0.000000 -0.585924 0.810366
outer loop
vertex 0.421307 -0.252284 0.137147
vertex -0.421307 -0.285151 0.113383
vertex 0.421307 -0.285151 0.113383
endloop
endfacet
facet normal -0.000000 -0.887313 0.461167
outer loop
vertex 0.421307 -0.285151 0.113383
vertex -0.421307 -0.285151 0.113383
vertex -0.421307 -0.300380 0.084081
endloop
endfacet
facet normal 0.000000 -0.887314 0.461165
outer loop
vertex 0.421307 -0.285151 0.113383
vertex -0.421307 -0.300380 0.084081
vertex 0.421307 -0.300380 0.084081
endloop
endfacet
facet normal 0.000000 -0.986637 -0.162934
outer loop
vertex 0.421307 -0.300380 0.084081
vertex -0.421307 -0.300380 0.084081
vertex -0.421307 -0.295877 0.056812
endloop
endfacet
facet normal -0.000000 -0.986637 -0.162933
outer loop
vertex 0.421307 -0.300380 0.084081
vertex -0.421307 -0.295877 0.056812
vertex 0.421307 -0.295877 0.056812
endloop
endfacet
facet normal -0.000000 -0.699113 -0.715011
outer loop
vertex 0.421307 -0.295877 0.056812
vertex -0.421307 -0.295877 0.056812
vertex -0.421307 -0.271951 0.033419
endloop
endfacet
facet normal 0.000000 -0.699112 -0.715012
outer loop
vertex 0.421307 -0.295877 0.056812
vertex -0.421307 -0.271951 0.033419
vertex 0.421307 -0.271951 0.033419
endloop
endfacet
facet normal -0.000000 -0.507239 -0.861805
outer loop
vertex 0.421307 -0.271951 0.033419
vertex -0.421307 -0.271951 0.033419
vertex -0.421307 -0.231364 0.009530
endloop
endfacet
facet normal -0.000000 -0.507240 -0.861805
outer loop
vertex 0.421307 -0.271951 0.033419
vertex -0.421307 -0.231364 0.009530
vertex 0.421307 -0.231364 0.009530
endloop
endfacet
facet normal 0.000000 0.261674 0.965156
outer loop
vertex 0.421307 0.238351 0.139339
vertex -0.421307 0.238351 0.139339
vertex -0.421307 0.178419 0.155587
endloop
endfacet
facet normal 0.000000 0.261674 0.965156
outer loop
vertex 0.421307 0.238351 0.139339
vertex -0.421307 0.178419 0.155587
vertex 0.421307 0.178419 0.155587
endloop
endfacet
facet normal 0.000000 0.166702 0.986007
outer loop
vertex 0.421307 0.178419 0.155587
vertex -0.421307 0.178419 0.155587
vertex -0.421307 0.108269 0.167447
endloop
endfacet
facet normal 0.000000 0.166702 0.986007
outer loop
vertex 0.421307 0.178419 0.155587
vertex -0.421307 0.108269 0.167447
vertex 0.421307 0.108269 0.167447
endloop
endfacet
facet normal 0.000000 0.087811 0.996137
outer loop
vertex 0.421307 0.108269 0.167447
vertex -0.421307 0.108269 0.167447
vertex -0.421307 0.032681 0.174111
endloop
endfacet
facet normal -0.000000 0.087811 0.996137
outer loop
vertex 0.421307 0.108269 0.167447
vertex -0.421307 0.032681 0.174111
vertex 0.421307 0.032681 0.174111
endloop
endfacet
facet normal 0.000000 0.013339 0.999911
outer loop
vertex 0.421307 0.032681 0.174111
vertex -0.421307 0.032681 0.174111
vertex -0.421307 -0.043193 0.175123
endloop
endfacet
facet normal 0.000000 0.013339 0.999911
outer loop
vertex 0.421307 0.032681 0.174111
vertex -0.421307 -0.043193 0.175123
vertex 0.421307 -0.043193 0.175123
endloop
endfacet
facet normal -0.000000 -0.066171 0.997808
outer loop
vertex 0.421307 -0.043193 0.175123
vertex -0.421307 -0.043193 0.175123
vertex -0.421307 -0.114183 0.170415
endloop
endfacet
facet normal 0.000000 -0.066172 0.997808
outer loop
vertex 0.421307 -0.043193 0.175123
vertex -0.421307 -0.114183 0.170415
vertex 0.421307 -0.114183 0.170415
endloop
endfacet
facet normal 0.000000 -0.162765 0.986665
outer loop
vertex 0.421307 -0.114183 0.170415
vertex -0.421307 -0.114183 0.170415
vertex -0.421307 -0.175450 0.160308
endloop
endfacet
facet normal 0.000000 -0.162765 0.986665
outer loop
vertex 0.421307 -0.114183 0.170415
vertex -0.421307 -0.175450 0.160308
vertex 0.421307 -0.175450 0.160308
endloop
endfacet
facet normal -1.000000 -0.000004 0.000000
outer loop
vertex -0.421307 0.777311 -0.089793
vertex -0.421307 0.822763 -0.107331
vertex -0.421307 0.850461 -0.122970
endloop
endfacet
facet normal -1.000000 0.000000 0.000000
outer loop
vertex -0.421307 0.850461 -0.122970
vertex -0.421307 0.858516 -0.135644
vertex -0.421307 0.846007 -0.146460
endloop
endfacet
facet normal -1.000000 0.000000 0.000000
outer loop
vertex -0.421307 0.846007 -0.146460
vertex -0.421307 0.815213 -0.147151
vertex -0.421307 0.767102 -0.143637
endloop
endfacet
facet normal -1.000000 0.000001 0.000000
outer loop
vertex -0.421307 0.767102 -0.143637
vertex -0.421307 0.190303 -0.114084
vertex -0.421307 0.128914 -0.105517
endloop
endfacet
facet normal -1.000000 0.000000 0.000000
outer loop
vertex -0.421307 0.128914 -0.105517
vertex -0.421307 0.059193 -0.091392
vertex -0.421307 -0.014109 -0.072673
endloop
endfacet
facet normal -1.000000 0.000000 0.000000
outer loop
vertex -0.421307 -0.014109 -0.072673
vertex -0.421307 -0.085997 -0.050636
vertex -0.421307 -0.151571 -0.026782
endloop
endfacet
facet normal -1.000000 0.000013 0.000000
outer loop
vertex -0.421307 -0.151571 -0.026782
vertex -0.421307 -0.206363 -0.002736
vertex -0.421307 -0.231364 0.009530
endloop
endfacet
facet normal -1.000000 -0.000005 0.000000
outer loop
vertex -0.421307 -0.231364 0.009530
vertex -0.421307 -0.271951 0.033419
vertex -0.421307 -0.295877 0.056812
endloop
endfacet
facet normal -1.000000 -0.000003 0.000000
outer loop
vertex -0.421307 -0.295877 0.056812
vertex -0.421307 -0.300380 0.084081
vertex -0.421307 -0.285151 0.113383
endloop
endfacet
facet normal -1.000000 -0.000002 0.000000
outer loop
vertex -0.421307 -0.285151 0.113383
vertex -0.421307 -0.252284 0.137147
vertex -0.421307 -0.204020 0.153753
endloop
endfacet
facet normal -1.000000 0.000008 0.000000
outer loop
vertex -0.421307 -0.204020 0.153753
vertex -0.421307 -0.175450 0.160308
vertex -0.421307 -0.114183 0.170415
endloop
endfacet
facet normal -1.000000 -0.000001 0.000000
outer loop
vertex -0.421307 -0.114183 0.170415
vertex -0.421307 -0.043193 0.175123
vertex -0.421307 0.032681 0.174111
endloop
endfacet
facet normal -1.000000 0.000000 0.000000
outer loop
vertex -0.421307 0.032681 0.174111
vertex -0.421307 0.108269 0.167447
vertex -0.421307 0.178419 0.155587
endloop
endfacet
facet normal -1.000000 0.000000 0.000000
outer loop
vertex -0.421307 0.178419 0.155587
vertex -0.421307 0.238351 0.139339
vertex -0.421307 0.777311 -0.089793
endloop
endfacet
facet normal -1.000000 0.000000 0.000000
outer loop
vertex -0.421307 0.777311 -0.089793
vertex -0.421307 0.850461 -0.122970
vertex -0.421307 0.846007 -0.146460
endloop
endfacet
facet normal -1.000000 0.000000 0.000000
outer loop
vertex -0.421307 0.846007 -0.146460
vertex -0.421307 0.767102 -0.143637
vertex -0.421307 0.128914 -0.105517
endloop
endfacet
facet normal -1.000000 0.000000 0.000000
outer loop
vertex -0.421307 0.128914 -0.105517
vertex -0.421307 -0.014109 -0.072673
vertex -0.421307 -0.151571 -0.026782
endloop
endfacet
facet normal -1.000000 -0.000003 0.000000
outer loop
vertex -0.421307 -0.151571 -0.026782
vertex -0.421307 -0.231364 0.009530
vertex -0.421307 -0.295877 0.056812
endloop
endfacet
facet normal -1.000000 0.000002 0.000000
outer loop
vertex -0.421307 -0.295877 0.056812
vertex -0.421307 -0.285151 0.113383
vertex -0.421307 -0.204020 0.153753
endloop
endfacet
facet normal -1.000000 -0.000000 0.000000
outer loop
vertex -0.421307 -0.204020 0.153753
vertex -0.421307 -0.114183 0.170415
vertex -0.421307 0.032681 0.174111
endloop
endfacet
facet normal -1.000000 -0.000001 0.000000
outer loop
vertex -0.421307 0.032681 0.174111
vertex -0.421307 0.178419 0.155587
vertex -0.421307 0.777311 -0.089793
endloop
endfacet
facet normal -1.000000 0.000000 0.000000
outer loop
vertex -0.421307 0.777311 -0.089793
vertex -0.421307 0.846007 -0.146460
vertex -0.421307 0.128914 -0.105517
endloop
endfacet
facet normal -1.000000 0.000000 0.000000
outer loop
vertex -0.421307 0.128914 -0.105517
vertex -0.421307 -0.151571 -0.026782
vertex -0.421307 -0.295877 0.056812
endloop
endfacet
facet normal -1.000000 -0.000000 0.000000
outer loop
vertex -0.421307 -0.295877 0.056812
vertex -0.421307 -0.204020 0.153753
vertex -0.421307 0.032681 0.174111
endloop
endfacet
facet normal -1.000000 0.000000 0.000000
outer loop
vertex -0.421307 0.032681 0.174111
vertex -0.421307 0.777311 -0.089793
vertex -0.421307 0.128914 -0.105517
endloop
endfacet
facet normal -1.000000 -0.000000 0.000000
outer loop
vertex -0.421307 0.128914 -0.105517
vertex -0.421307 -0.295877 0.056812
vertex -0.421307 0.032681 0.174111
endloop
endfacet
endsolid Exported from Blender-3.3.3
