solid Exported from Blender-3.3.3
facet normal 0.000000 1.000000 0.000000
outer loop
vertex 2.841830 -6.503860 0.580037
vertex 2.841830 -6.503860 0.289417
vertex 2.714640 -6.503860 0.289417
endloop
endfacet
facet normal 0.000000 1.000000 0.000000
outer loop
vertex 2.841830 -6.503860 0.580037
vertex 2.714640 -6.503860 0.289417
vertex 2.537520 -6.503860 0.507867
endloop
endfacet
facet normal 0.000000 1.000000 0.000009
outer loop
vertex 2.838500 -6.503860 0.670777
vertex 2.841830 -6.503860 0.580037
vertex 2.537520 -6.503860 0.507867
endloop
endfacet
facet normal 0.000000 1.000000 0.000000
outer loop
vertex 2.838500 -6.503860 0.670777
vertex 2.537520 -6.503860 0.507867
vertex 2.351890 -6.503860 0.640707
endloop
endfacet
facet normal 0.000000 1.000000 0.000000
outer loop
vertex 2.828510 -6.503860 0.831477
vertex 2.838500 -6.503860 0.670777
vertex 2.351890 -6.503860 0.640707
endloop
endfacet
facet normal 0.000000 1.000000 0.000000
outer loop
vertex 2.828510 -6.503860 0.831477
vertex 2.351890 -6.503860 0.640707
vertex 2.030800 -6.503860 0.761517
endloop
endfacet
facet normal 0.000000 1.000000 0.000000
outer loop
vertex 3.191620 -6.503860 1.225367
vertex 2.828510 -6.503860 0.831477
vertex 2.030800 -6.503860 0.761517
endloop
endfacet
facet normal 0.000000 1.000000 -0.000011
outer loop
vertex 3.191620 -6.503860 1.225367
vertex 2.030800 -6.503860 0.761517
vertex 3.006871 -6.503860 1.225367
endloop
endfacet
facet normal -0.429233 0.000000 0.903194
outer loop
vertex 2.030800 -6.523160 0.761517
vertex 3.006871 -6.523160 1.225367
vertex 3.006871 -6.503860 1.225367
endloop
endfacet
facet normal -0.429215 0.000000 0.903202
outer loop
vertex 2.030800 -6.523160 0.761517
vertex 3.006871 -6.503860 1.225367
vertex 2.030800 -6.503860 0.761517
endloop
endfacet
facet normal -0.352159 0.000000 -0.935940
outer loop
vertex 2.351890 -6.523160 0.640707
vertex 2.030800 -6.523160 0.761517
vertex 2.030800 -6.503860 0.761517
endloop
endfacet
facet normal -0.352135 0.000000 -0.935949
outer loop
vertex 2.351890 -6.523160 0.640707
vertex 2.030800 -6.503860 0.761517
vertex 2.351890 -6.503860 0.640707
endloop
endfacet
facet normal -0.581958 0.000000 -0.813219
outer loop
vertex 2.537520 -6.523160 0.507867
vertex 2.351890 -6.523160 0.640707
vertex 2.351890 -6.503860 0.640707
endloop
endfacet
facet normal -0.581958 0.000000 -0.813219
outer loop
vertex 2.537520 -6.523160 0.507867
vertex 2.351890 -6.503860 0.640707
vertex 2.537520 -6.503860 0.507867
endloop
endfacet
facet normal -0.776763 0.000000 -0.629793
outer loop
vertex 2.714640 -6.523160 0.289417
vertex 2.537520 -6.523160 0.507867
vertex 2.537520 -6.503860 0.507867
endloop
endfacet
facet normal -0.776742 0.000000 -0.629819
outer loop
vertex 2.714640 -6.523160 0.289417
vertex 2.537520 -6.503860 0.507867
vertex 2.714640 -6.503860 0.289417
endloop
endfacet
facet normal 0.000000 -1.000000 0.000003
outer loop
vertex 2.828510 -6.523160 0.831477
vertex 3.191620 -6.523160 1.225367
vertex 3.006871 -6.523160 1.225367
endloop
endfacet
facet normal 0.000000 -1.000000 0.000000
outer loop
vertex 2.828510 -6.523160 0.831477
vertex 3.006871 -6.523160 1.225367
vertex 2.030800 -6.523160 0.761517
endloop
endfacet
facet normal 0.000000 -1.000000 0.000000
outer loop
vertex 2.838500 -6.523160 0.670777
vertex 2.828510 -6.523160 0.831477
vertex 2.030800 -6.523160 0.761517
endloop
endfacet
facet normal 0.000000 -1.000000 0.000000
outer loop
vertex 2.838500 -6.523160 0.670777
vertex 2.030800 -6.523160 0.761517
vertex 2.351890 -6.523160 0.640707
endloop
endfacet
facet normal 0.000000 -1.000000 0.000000
outer loop
vertex 2.841830 -6.523160 0.580037
vertex 2.838500 -6.523160 0.670777
vertex 2.351890 -6.523160 0.640707
endloop
endfacet
facet normal 0.000000 -1.000000 -0.000004
outer loop
vertex 2.841830 -6.523160 0.580037
vertex 2.351890 -6.523160 0.640707
vertex 2.537520 -6.523160 0.507867
endloop
endfacet
facet normal 0.000000 -1.000000 0.000000
outer loop
vertex 2.841830 -6.523160 0.289417
vertex 2.841830 -6.523160 0.580037
vertex 2.537520 -6.523160 0.507867
endloop
endfacet
facet normal 0.000000 -1.000000 0.000000
outer loop
vertex 2.841830 -6.523160 0.289417
vertex 2.537520 -6.523160 0.507867
vertex 2.714640 -6.523160 0.289417
endloop
endfacet
facet normal 0.735256 0.000000 -0.677789
outer loop
vertex 2.828510 -6.503860 0.831477
vertex 3.191620 -6.503860 1.225367
vertex 3.191620 -6.523160 1.225367
endloop
endfacet
facet normal 0.735233 0.000000 -0.677814
outer loop
vertex 2.828510 -6.503860 0.831477
vertex 3.191620 -6.523160 1.225367
vertex 2.828510 -6.523160 0.831477
endloop
endfacet
facet normal 0.998073 0.000000 0.062049
outer loop
vertex 2.838500 -6.503860 0.670777
vertex 2.828510 -6.503860 0.831477
vertex 2.828510 -6.523160 0.831477
endloop
endfacet
facet normal 0.998073 0.000000 0.062044
outer loop
vertex 2.838500 -6.503860 0.670777
vertex 2.828510 -6.523160 0.831477
vertex 2.838500 -6.523160 0.670777
endloop
endfacet
facet normal 0.999327 0.000000 0.036672
outer loop
vertex 2.841830 -6.503860 0.580037
vertex 2.838500 -6.503860 0.670777
vertex 2.838500 -6.523160 0.670777
endloop
endfacet
facet normal 0.999327 0.000000 0.036675
outer loop
vertex 2.841830 -6.503860 0.580037
vertex 2.838500 -6.523160 0.670777
vertex 2.841830 -6.523160 0.580037
endloop
endfacet
facet normal 1.000000 0.000000 0.000000
outer loop
vertex 2.841830 -6.503860 0.289417
vertex 2.841830 -6.503860 0.580037
vertex 2.841830 -6.523160 0.580037
endloop
endfacet
facet normal 1.000000 0.000000 0.000000
outer loop
vertex 2.841830 -6.503860 0.289417
vertex 2.841830 -6.523160 0.580037
vertex 2.841830 -6.523160 0.289417
endloop
endfacet
facet normal 0.000000 0.000000 1.000000
outer loop
vertex 3.191620 -6.503860 1.225367
vertex 3.006871 -6.503860 1.225367
vertex 3.006871 -6.523160 1.225367
endloop
endfacet
facet normal 0.000000 0.000000 1.000000
outer loop
vertex 3.191620 -6.503860 1.225367
vertex 3.006871 -6.523160 1.225367
vertex 3.191620 -6.523160 1.225367
endloop
endfacet
facet normal 0.000000 0.000000 -1.000000
outer loop
vertex 2.841830 -6.503860 0.289417
vertex 2.841830 -6.523160 0.289417
vertex 2.714640 -6.523160 0.289417
endloop
endfacet
facet normal 0.000000 0.000000 -1.000000
outer loop
vertex 2.841830 -6.503860 0.289417
vertex 2.714640 -6.523160 0.289417
vertex 2.714640 -6.503860 0.289417
endloop
endfacet
facet normal 0.149441 -0.000002 0.988771
outer loop
vertex -0.090768 2.098889 -0.076991
vertex -0.090769 2.002740 -0.076991
vertex 0.640020 2.049919 -0.187441
endloop
endfacet
facet normal 0.149441 -0.000000 0.988771
outer loop
vertex -0.090768 2.098889 -0.076991
vertex 0.640020 2.049919 -0.187441
vertex 0.640020 2.098889 -0.187441
endloop
endfacet
facet normal 0.149442 -0.000002 0.988771
outer loop
vertex -0.090767 2.195029 -0.076991
vertex -0.090768 2.098889 -0.076991
vertex 0.640020 2.098889 -0.187441
endloop
endfacet
facet normal 0.149441 0.000000 0.988771
outer loop
vertex -0.090767 2.195029 -0.076991
vertex 0.640020 2.098889 -0.187441
vertex 0.640020 2.147860 -0.187441
endloop
endfacet
facet normal -0.160929 0.855495 -0.492169
outer loop
vertex -2.283129 2.098889 -0.257012
vertex -2.283129 2.114969 -0.229061
vertex -1.552339 2.173639 -0.366032
endloop
endfacet
facet normal -0.172912 0.344974 -0.922548
outer loop
vertex -2.283129 2.098889 -0.257012
vertex -1.552339 2.173639 -0.366032
vertex -1.552349 2.098889 -0.393981
endloop
endfacet
facet normal -0.093101 -0.862899 -0.496727
outer loop
vertex -2.283129 2.082800 -0.229061
vertex -2.283129 2.098889 -0.257012
vertex -1.552349 2.098889 -0.393981
endloop
endfacet
facet normal -0.199578 -0.343144 -0.917835
outer loop
vertex -2.283129 2.082800 -0.229061
vertex -1.552349 2.098889 -0.393981
vertex -1.552349 2.024130 -0.366032
endloop
endfacet
facet normal -0.124039 0.347539 -0.929425
outer loop
vertex -1.552349 2.098889 -0.393981
vertex -1.552339 2.173639 -0.366032
vertex -0.821556 2.195029 -0.455562
endloop
endfacet
facet normal -0.116835 0.277251 -0.953668
outer loop
vertex -1.552349 2.098889 -0.393981
vertex -0.821556 2.195029 -0.455562
vertex -0.821556 2.098889 -0.483511
endloop
endfacet
facet normal -0.114005 -0.347907 -0.930572
outer loop
vertex -1.552349 2.024130 -0.366032
vertex -1.552349 2.098889 -0.393981
vertex -0.821556 2.098889 -0.483511
endloop
endfacet
facet normal -0.124827 -0.276953 -0.952741
outer loop
vertex -1.552349 2.024130 -0.366032
vertex -0.821556 2.098889 -0.483511
vertex -0.821556 2.002740 -0.455562
endloop
endfacet
facet normal 0.080170 0.278264 -0.957153
outer loop
vertex -0.821556 2.098889 -0.483511
vertex -0.821556 2.195029 -0.455562
vertex -0.090768 2.195029 -0.394351
endloop
endfacet
facet normal 0.080170 0.278266 -0.957152
outer loop
vertex -0.821556 2.098889 -0.483511
vertex -0.090768 2.195029 -0.394351
vertex -0.090768 2.098889 -0.422301
endloop
endfacet
facet normal 0.080171 -0.278238 -0.957160
outer loop
vertex -0.821556 2.002740 -0.455562
vertex -0.821556 2.098889 -0.483511
vertex -0.090768 2.098889 -0.422301
endloop
endfacet
facet normal 0.080171 -0.278240 -0.957160
outer loop
vertex -0.821556 2.002740 -0.455562
vertex -0.090768 2.098889 -0.422301
vertex -0.090768 2.002740 -0.394351
endloop
endfacet
facet normal 0.202334 -0.485446 -0.850531
outer loop
vertex 0.640020 2.098889 -0.275381
vertex 0.640020 2.049919 -0.247431
vertex -0.090768 2.002740 -0.394351
endloop
endfacet
facet normal 0.189552 -0.274079 -0.942842
outer loop
vertex 0.640020 2.098889 -0.275381
vertex -0.090768 2.002740 -0.394351
vertex -0.090768 2.098889 -0.422301
endloop
endfacet
facet normal 0.172003 0.488311 -0.855551
outer loop
vertex 0.640020 2.147860 -0.247431
vertex 0.640020 2.098889 -0.275381
vertex -0.090768 2.098889 -0.422301
endloop
endfacet
facet normal 0.206519 0.273147 -0.939543
outer loop
vertex 0.640020 2.147860 -0.247431
vertex -0.090768 2.098889 -0.422301
vertex -0.090768 2.195029 -0.394351
endloop
endfacet
facet normal -1.000000 0.000000 0.000000
outer loop
vertex -2.283129 2.098889 -0.131681
vertex -2.283129 2.114969 -0.131681
vertex -2.283129 2.114969 -0.229061
endloop
endfacet
facet normal -1.000000 0.000000 0.000000
outer loop
vertex -2.283129 2.098889 -0.131681
vertex -2.283129 2.114969 -0.229061
vertex -2.283129 2.098889 -0.257012
endloop
endfacet
facet normal -1.000000 0.000000 0.000000
outer loop
vertex -2.283129 2.082800 -0.131681
vertex -2.283129 2.098889 -0.131681
vertex -2.283129 2.098889 -0.257012
endloop
endfacet
facet normal -1.000000 0.000000 0.000000
outer loop
vertex -2.283129 2.082800 -0.131681
vertex -2.283129 2.098889 -0.257012
vertex -2.283129 2.082800 -0.229061
endloop
endfacet
facet normal 1.000000 0.000000 0.000000
outer loop
vertex 0.640020 2.098889 -0.187441
vertex 0.640020 2.049919 -0.187441
vertex 0.640020 2.049919 -0.247431
endloop
endfacet
facet normal 1.000000 0.000000 0.000000
outer loop
vertex 0.640020 2.098889 -0.187441
vertex 0.640020 2.049919 -0.247431
vertex 0.640020 2.098889 -0.275381
endloop
endfacet
facet normal 1.000000 0.000000 0.000000
outer loop
vertex 0.640020 2.098889 -0.275381
vertex 0.640020 2.147860 -0.247431
vertex 0.640020 2.147860 -0.187441
endloop
endfacet
facet normal 1.000000 0.000000 0.000000
outer loop
vertex 0.640020 2.098889 -0.275381
vertex 0.640020 2.147860 -0.187441
vertex 0.640020 2.098889 -0.187441
endloop
endfacet
facet normal -0.080025 0.996793 0.000000
outer loop
vertex -1.552339 2.173639 -0.366032
vertex -2.283129 2.114969 -0.229061
vertex -2.283129 2.114969 -0.131681
endloop
endfacet
facet normal -0.080025 0.996793 0.000000
outer loop
vertex -1.552339 2.173639 -0.366032
vertex -2.283129 2.114969 -0.131681
vertex -1.552339 2.173639 -0.131681
endloop
endfacet
facet normal -0.029257 0.999572 0.000000
outer loop
vertex -0.821556 2.195029 -0.455562
vertex -1.552339 2.173639 -0.366032
vertex -1.552339 2.173639 -0.131681
endloop
endfacet
facet normal -0.029257 0.999572 0.000000
outer loop
vertex -0.821556 2.195029 -0.455562
vertex -1.552339 2.173639 -0.131681
vertex -0.821556 2.195029 -0.131681
endloop
endfacet
facet normal 0.000000 1.000000 0.000000
outer loop
vertex -0.090768 2.195029 -0.394351
vertex -0.821556 2.195029 -0.455562
vertex -0.821556 2.195029 -0.131681
endloop
endfacet
facet normal 0.000000 1.000000 0.000000
outer loop
vertex -0.090768 2.195029 -0.394351
vertex -0.821556 2.195029 -0.131681
vertex -0.090767 2.195029 -0.076991
endloop
endfacet
facet normal 0.064412 0.997923 0.000001
outer loop
vertex 0.640020 2.147860 -0.247431
vertex -0.090768 2.195029 -0.394351
vertex -0.090767 2.195029 -0.076991
endloop
endfacet
facet normal 0.064412 0.997923 0.000000
outer loop
vertex 0.640020 2.147860 -0.247431
vertex -0.090767 2.195029 -0.076991
vertex 0.640020 2.147860 -0.187441
endloop
endfacet
facet normal -0.080027 -0.996793 0.000000
outer loop
vertex -1.552349 2.024130 -0.131681
vertex -2.283129 2.082800 -0.131681
vertex -2.283129 2.082800 -0.229061
endloop
endfacet
facet normal -0.080027 -0.996793 0.000000
outer loop
vertex -1.552349 2.024130 -0.131681
vertex -2.283129 2.082800 -0.229061
vertex -1.552349 2.024130 -0.366032
endloop
endfacet
facet normal -0.029257 -0.999572 0.000000
outer loop
vertex -0.821557 2.002740 -0.131681
vertex -1.552349 2.024130 -0.131681
vertex -1.552349 2.024130 -0.366032
endloop
endfacet
facet normal -0.029257 -0.999572 0.000000
outer loop
vertex -0.821557 2.002740 -0.131681
vertex -1.552349 2.024130 -0.366032
vertex -0.821556 2.002740 -0.455562
endloop
endfacet
facet normal 0.000000 -1.000000 -0.000001
outer loop
vertex -0.090769 2.002740 -0.076991
vertex -0.821557 2.002740 -0.131681
vertex -0.821556 2.002740 -0.455562
endloop
endfacet
facet normal 0.000000 -1.000000 0.000001
outer loop
vertex -0.090769 2.002740 -0.076991
vertex -0.821556 2.002740 -0.455562
vertex -0.090768 2.002740 -0.394351
endloop
endfacet
facet normal 0.064425 -0.997923 -0.000001
outer loop
vertex 0.640020 2.049919 -0.187441
vertex -0.090769 2.002740 -0.076991
vertex -0.090768 2.002740 -0.394351
endloop
endfacet
facet normal 0.064425 -0.997923 0.000000
outer loop
vertex 0.640020 2.049919 -0.187441
vertex -0.090768 2.002740 -0.394351
vertex 0.640020 2.049919 -0.247431
endloop
endfacet
facet normal 0.064427 -0.997922 0.000000
outer loop
vertex -0.039502 5.501170 -0.547281
vertex -0.770290 5.453990 -0.436821
vertex -0.770290 5.453990 -0.754191
endloop
endfacet
facet normal 0.064426 -0.997922 0.000000
outer loop
vertex -0.039502 5.501170 -0.547281
vertex -0.770290 5.453990 -0.754191
vertex -0.039501 5.501170 -0.607261
endloop
endfacet
facet normal 0.000000 -1.000000 0.000000
outer loop
vertex -0.770290 5.453990 -0.436821
vertex -1.501079 5.453990 -0.491521
vertex -1.501079 5.453990 -0.815391
endloop
endfacet
facet normal 0.000000 -1.000000 0.000000
outer loop
vertex -0.770290 5.453990 -0.436821
vertex -1.501079 5.453990 -0.815391
vertex -0.770290 5.453990 -0.754191
endloop
endfacet
facet normal -0.029271 -0.999572 0.000000
outer loop
vertex -1.501079 5.453990 -0.491521
vertex -2.231869 5.475389 -0.542721
vertex -2.231869 5.475389 -0.777071
endloop
endfacet
facet normal -0.029271 -0.999572 0.000000
outer loop
vertex -1.501079 5.453990 -0.491521
vertex -2.231869 5.475389 -0.777071
vertex -1.501079 5.453990 -0.815391
endloop
endfacet
facet normal -0.080026 -0.996793 0.000000
outer loop
vertex -2.231869 5.475389 -0.542721
vertex -2.962660 5.534060 -0.586411
vertex -2.962660 5.534060 -0.683781
endloop
endfacet
facet normal -0.080026 -0.996793 0.000000
outer loop
vertex -2.231869 5.475389 -0.542721
vertex -2.962660 5.534060 -0.683781
vertex -2.231869 5.475389 -0.777071
endloop
endfacet
facet normal 0.064426 0.997922 0.000000
outer loop
vertex -0.039501 5.599110 -0.607261
vertex -0.770289 5.646289 -0.754191
vertex -0.770289 5.646289 -0.436821
endloop
endfacet
facet normal 0.064426 0.997922 0.000000
outer loop
vertex -0.039501 5.599110 -0.607261
vertex -0.770289 5.646289 -0.436821
vertex -0.039501 5.599110 -0.547281
endloop
endfacet
facet normal 0.000000 1.000000 0.000000
outer loop
vertex -0.770289 5.646289 -0.754191
vertex -1.501079 5.646289 -0.815391
vertex -1.501079 5.646289 -0.491521
endloop
endfacet
facet normal 0.000000 1.000000 0.000000
outer loop
vertex -0.770289 5.646289 -0.754191
vertex -1.501079 5.646289 -0.491521
vertex -0.770289 5.646289 -0.436821
endloop
endfacet
facet normal -0.029271 0.999571 0.000000
outer loop
vertex -1.501079 5.646289 -0.815391
vertex -2.231869 5.624889 -0.777071
vertex -2.231869 5.624889 -0.542721
endloop
endfacet
facet normal -0.029271 0.999572 0.000000
outer loop
vertex -1.501079 5.646289 -0.815391
vertex -2.231869 5.624889 -0.542721
vertex -1.501079 5.646289 -0.491521
endloop
endfacet
facet normal -0.080028 0.996793 -0.000001
outer loop
vertex -2.231869 5.624889 -0.777071
vertex -2.962650 5.566219 -0.683781
vertex -2.962660 5.566219 -0.586411
endloop
endfacet
facet normal -0.080026 0.996793 0.000000
outer loop
vertex -2.231869 5.624889 -0.777071
vertex -2.962660 5.566219 -0.586411
vertex -2.231869 5.624889 -0.542721
endloop
endfacet
facet normal 1.000000 0.000000 0.000000
outer loop
vertex -0.039501 5.599110 -0.547281
vertex -0.039501 5.550139 -0.547281
vertex -0.039501 5.550139 -0.635211
endloop
endfacet
facet normal 1.000000 -0.000000 0.000000
outer loop
vertex -0.039501 5.599110 -0.547281
vertex -0.039501 5.550139 -0.635211
vertex -0.039501 5.599110 -0.607261
endloop
endfacet
facet normal 1.000000 -0.000021 0.000017
outer loop
vertex -0.039501 5.550139 -0.547281
vertex -0.039502 5.501170 -0.547281
vertex -0.039501 5.501170 -0.607261
endloop
endfacet
facet normal 1.000000 0.000000 0.000000
outer loop
vertex -0.039501 5.550139 -0.547281
vertex -0.039501 5.501170 -0.607261
vertex -0.039501 5.550139 -0.635211
endloop
endfacet
facet normal -1.000000 0.000000 0.000000
outer loop
vertex -2.962660 5.534060 -0.586411
vertex -2.962660 5.550139 -0.586411
vertex -2.962660 5.550139 -0.711731
endloop
endfacet
facet normal -1.000000 -0.000010 0.000000
outer loop
vertex -2.962660 5.534060 -0.586411
vertex -2.962660 5.550139 -0.711731
vertex -2.962660 5.534060 -0.683781
endloop
endfacet
facet normal -1.000000 0.000000 -0.000103
outer loop
vertex -2.962660 5.550139 -0.586411
vertex -2.962660 5.566219 -0.586411
vertex -2.962650 5.566219 -0.683781
endloop
endfacet
facet normal -1.000000 0.000621 0.000000
outer loop
vertex -2.962660 5.550139 -0.586411
vertex -2.962650 5.566219 -0.683781
vertex -2.962660 5.550139 -0.711731
endloop
endfacet
facet normal 0.172015 0.488309 -0.855550
outer loop
vertex -0.039501 5.599110 -0.607261
vertex -0.039501 5.550139 -0.635211
vertex -0.770289 5.550139 -0.782141
endloop
endfacet
facet normal 0.206534 0.273115 -0.939549
outer loop
vertex -0.039501 5.599110 -0.607261
vertex -0.770289 5.550139 -0.782141
vertex -0.770289 5.646289 -0.754191
endloop
endfacet
facet normal 0.202345 -0.485444 -0.850529
outer loop
vertex -0.039501 5.550139 -0.635211
vertex -0.039501 5.501170 -0.607261
vertex -0.770290 5.453990 -0.754191
endloop
endfacet
facet normal 0.189564 -0.274075 -0.942841
outer loop
vertex -0.039501 5.550139 -0.635211
vertex -0.770290 5.453990 -0.754191
vertex -0.770289 5.550139 -0.782141
endloop
endfacet
facet normal 0.080158 -0.278242 -0.957161
outer loop
vertex -1.501079 5.453990 -0.815391
vertex -1.501079 5.550139 -0.843341
vertex -0.770289 5.550139 -0.782141
endloop
endfacet
facet normal 0.080157 -0.278235 -0.957162
outer loop
vertex -1.501079 5.453990 -0.815391
vertex -0.770289 5.550139 -0.782141
vertex -0.770290 5.453990 -0.754191
endloop
endfacet
facet normal 0.080157 0.278238 -0.957162
outer loop
vertex -1.501079 5.550139 -0.843341
vertex -1.501079 5.646289 -0.815391
vertex -0.770289 5.646289 -0.754191
endloop
endfacet
facet normal 0.080158 0.278239 -0.957161
outer loop
vertex -1.501079 5.550139 -0.843341
vertex -0.770289 5.646289 -0.754191
vertex -0.770289 5.550139 -0.782141
endloop
endfacet
facet normal -0.049056 -0.349810 -0.935535
outer loop
vertex -2.231869 5.475389 -0.777071
vertex -2.231869 5.550139 -0.805021
vertex -1.501079 5.550139 -0.843341
endloop
endfacet
facet normal -0.058426 -0.278658 -0.958612
outer loop
vertex -2.231869 5.475389 -0.777071
vertex -1.501079 5.550139 -0.843341
vertex -1.501079 5.453990 -0.815391
endloop
endfacet
facet normal -0.059266 0.349611 -0.935019
outer loop
vertex -2.231869 5.550139 -0.805021
vertex -2.231869 5.624889 -0.777071
vertex -1.501079 5.646289 -0.815391
endloop
endfacet
facet normal -0.050289 0.278787 -0.959035
outer loop
vertex -2.231869 5.550139 -0.805021
vertex -1.501079 5.646289 -0.815391
vertex -1.501079 5.550139 -0.843341
endloop
endfacet
facet normal -0.063530 -0.865036 -0.497671
outer loop
vertex -2.962660 5.534060 -0.683781
vertex -2.962660 5.550139 -0.711731
vertex -2.231869 5.550139 -0.805021
endloop
endfacet
facet normal -0.146104 -0.346473 -0.926612
outer loop
vertex -2.962660 5.534060 -0.683781
vertex -2.231869 5.550139 -0.805021
vertex -2.231869 5.475389 -0.777071
endloop
endfacet
facet normal -0.132079 0.859217 -0.494268
outer loop
vertex -2.962660 5.550139 -0.711731
vertex -2.962650 5.566219 -0.683781
vertex -2.231869 5.624889 -0.777071
endloop
endfacet
facet normal -0.118726 0.347755 -0.930038
outer loop
vertex -2.962660 5.550139 -0.711731
vertex -2.231869 5.624889 -0.777071
vertex -2.231869 5.550139 -0.805021
endloop
endfacet
facet normal 0.149453 -0.000002 0.988769
outer loop
vertex -0.770289 5.646289 -0.436821
vertex -0.770290 5.550139 -0.436821
vertex -0.039501 5.550139 -0.547281
endloop
endfacet
facet normal 0.149451 0.000000 0.988769
outer loop
vertex -0.770289 5.646289 -0.436821
vertex -0.039501 5.550139 -0.547281
vertex -0.039501 5.599110 -0.547281
endloop
endfacet
facet normal 0.149453 0.000000 0.988769
outer loop
vertex -0.770290 5.550139 -0.436821
vertex -0.770290 5.453990 -0.436821
vertex -0.039502 5.501170 -0.547281
endloop
endfacet
facet normal 0.149457 -0.000003 0.988768
outer loop
vertex -0.770290 5.550139 -0.436821
vertex -0.039502 5.501170 -0.547281
vertex -0.039501 5.550139 -0.547281
endloop
endfacet
facet normal 0.068283 -0.997666 0.000000
outer loop
vertex 1.938310 -1.649660 0.170108
vertex 1.248680 -1.696860 0.280558
vertex 1.248680 -1.696860 -0.036802
endloop
endfacet
facet normal 0.068283 -0.997666 0.000000
outer loop
vertex 1.938310 -1.649660 0.170108
vertex 1.248680 -1.696860 -0.036802
vertex 1.938310 -1.649660 0.110118
endloop
endfacet
facet normal 0.000000 -1.000000 0.000000
outer loop
vertex 1.248680 -1.696860 0.280558
vertex 0.559060 -1.696860 0.225868
vertex 0.559060 -1.696860 -0.098012
endloop
endfacet
facet normal 0.000000 -1.000000 0.000000
outer loop
vertex 1.248680 -1.696860 0.280558
vertex 0.559060 -1.696860 -0.098012
vertex 1.248680 -1.696860 -0.036802
endloop
endfacet
facet normal -0.031016 -0.999519 -0.000000
outer loop
vertex 0.559060 -1.696860 0.225868
vertex -0.130567 -1.675461 0.225868
vertex -0.130566 -1.675461 -0.008482
endloop
endfacet
facet normal -0.031016 -0.999519 0.000000
outer loop
vertex 0.559060 -1.696860 0.225868
vertex -0.130566 -1.675461 -0.008482
vertex 0.559060 -1.696860 -0.098012
endloop
endfacet
facet normal -0.084813 -0.996397 0.000000
outer loop
vertex -0.130567 -1.675461 0.225868
vertex -0.820192 -1.616760 0.225868
vertex -0.820192 -1.616760 0.155428
endloop
endfacet
facet normal -0.084813 -0.996397 0.000000
outer loop
vertex -0.130567 -1.675461 0.225868
vertex -0.820192 -1.616760 0.155428
vertex -0.130566 -1.675461 -0.008482
endloop
endfacet
facet normal 0.068283 0.997666 0.000000
outer loop
vertex 1.938310 -1.551761 0.110118
vertex 1.248680 -1.504560 -0.036802
vertex 1.248680 -1.504560 0.280558
endloop
endfacet
facet normal 0.068283 0.997666 0.000000
outer loop
vertex 1.938310 -1.551761 0.110118
vertex 1.248680 -1.504560 0.280558
vertex 1.938310 -1.551761 0.170108
endloop
endfacet
facet normal 0.000000 1.000000 0.000000
outer loop
vertex 1.248680 -1.504560 -0.036802
vertex 0.559060 -1.504560 -0.098012
vertex 0.559060 -1.504560 0.225868
endloop
endfacet
facet normal 0.000000 1.000000 0.000000
outer loop
vertex 1.248680 -1.504560 -0.036802
vertex 0.559060 -1.504560 0.225868
vertex 1.248680 -1.504560 0.280558
endloop
endfacet
facet normal -0.031017 0.999519 0.000000
outer loop
vertex 0.559060 -1.504560 -0.098012
vertex -0.130566 -1.525961 -0.008482
vertex -0.130566 -1.525961 0.225868
endloop
endfacet
facet normal -0.031017 0.999519 0.000000
outer loop
vertex 0.559060 -1.504560 -0.098012
vertex -0.130566 -1.525961 0.225868
vertex 0.559060 -1.504560 0.225868
endloop
endfacet
facet normal -0.084668 0.996409 0.000000
outer loop
vertex -0.130566 -1.525961 -0.008482
vertex -0.820191 -1.584560 0.155428
vertex -0.820191 -1.584560 0.225868
endloop
endfacet
facet normal -0.084668 0.996409 0.000000
outer loop
vertex -0.130566 -1.525961 -0.008482
vertex -0.820191 -1.584560 0.225868
vertex -0.130566 -1.525961 0.225868
endloop
endfacet
facet normal 1.000000 0.000000 0.000000
outer loop
vertex 1.938310 -1.600660 0.082178
vertex 1.938310 -1.551761 0.110118
vertex 1.938310 -1.551761 0.170108
endloop
endfacet
facet normal 1.000000 -0.000000 0.000000
outer loop
vertex 1.938310 -1.600660 0.082178
vertex 1.938310 -1.551761 0.170108
vertex 1.938310 -1.600660 0.170108
endloop
endfacet
facet normal 1.000000 0.000000 0.000000
outer loop
vertex 1.938310 -1.600660 0.170108
vertex 1.938310 -1.649660 0.170108
vertex 1.938310 -1.649660 0.110118
endloop
endfacet
facet normal 1.000000 0.000000 0.000000
outer loop
vertex 1.938310 -1.600660 0.170108
vertex 1.938310 -1.649660 0.110118
vertex 1.938310 -1.600660 0.082178
endloop
endfacet
facet normal -1.000000 0.000000 -0.000010
outer loop
vertex -0.820192 -1.616760 0.225868
vertex -0.820192 -1.600660 0.225868
vertex -0.820191 -1.600660 0.127478
endloop
endfacet
facet normal -1.000000 0.000066 0.000000
outer loop
vertex -0.820192 -1.616760 0.225868
vertex -0.820191 -1.600660 0.127478
vertex -0.820192 -1.616760 0.155428
endloop
endfacet
facet normal -1.000000 0.000053 0.000000
outer loop
vertex -0.820192 -1.600660 0.225868
vertex -0.820191 -1.584560 0.225868
vertex -0.820191 -1.584560 0.155428
endloop
endfacet
facet normal -1.000000 0.000014 -0.000010
outer loop
vertex -0.820192 -1.600660 0.225868
vertex -0.820191 -1.584560 0.155428
vertex -0.820191 -1.600660 0.127478
endloop
endfacet
facet normal 0.181902 0.487826 -0.853778
outer loop
vertex 1.938310 -1.551761 0.110118
vertex 1.938310 -1.600660 0.082178
vertex 1.248680 -1.600660 -0.064752
endloop
endfacet
facet normal 0.218286 0.272537 -0.937057
outer loop
vertex 1.938310 -1.551761 0.110118
vertex 1.248680 -1.600660 -0.064752
vertex 1.248680 -1.504560 -0.036802
endloop
endfacet
facet normal 0.213903 -0.483873 -0.848594
outer loop
vertex 1.938310 -1.600660 0.082178
vertex 1.938310 -1.649660 0.110118
vertex 1.248680 -1.696860 -0.036802
endloop
endfacet
facet normal 0.200444 -0.273342 -0.940801
outer loop
vertex 1.938310 -1.600660 0.082178
vertex 1.248680 -1.696860 -0.036802
vertex 1.248680 -1.600660 -0.064752
endloop
endfacet
facet normal 0.084926 -0.277996 -0.956821
outer loop
vertex 0.559060 -1.696860 -0.098012
vertex 0.559060 -1.600660 -0.125962
vertex 1.248680 -1.600660 -0.064752
endloop
endfacet
facet normal 0.084926 -0.277995 -0.956821
outer loop
vertex 0.559060 -1.696860 -0.098012
vertex 1.248680 -1.600660 -0.064752
vertex 1.248680 -1.696860 -0.036802
endloop
endfacet
facet normal 0.084919 0.278263 -0.956744
outer loop
vertex 0.559060 -1.600660 -0.125962
vertex 0.559060 -1.504560 -0.098012
vertex 1.248680 -1.504560 -0.036802
endloop
endfacet
facet normal 0.084920 0.278264 -0.956743
outer loop
vertex 0.559060 -1.600660 -0.125962
vertex 1.248680 -1.504560 -0.036802
vertex 1.248680 -1.600660 -0.064752
endloop
endfacet
facet normal -0.120722 -0.347463 -0.929890
outer loop
vertex -0.130566 -1.675461 -0.008482
vertex -0.130566 -1.600660 -0.036432
vertex 0.559060 -1.600660 -0.125962
endloop
endfacet
facet normal -0.132157 -0.276557 -0.951867
outer loop
vertex -0.130566 -1.675461 -0.008482
vertex 0.559060 -1.600660 -0.125962
vertex 0.559060 -1.696860 -0.098012
endloop
endfacet
facet normal -0.131319 0.347405 -0.928475
outer loop
vertex -0.130566 -1.600660 -0.036432
vertex -0.130566 -1.525961 -0.008482
vertex 0.559060 -1.504560 -0.098012
endloop
endfacet
facet normal -0.123701 0.277127 -0.952837
outer loop
vertex -0.130566 -1.600660 -0.036432
vertex 0.559060 -1.504560 -0.098012
vertex 0.559060 -1.600660 -0.125962
endloop
endfacet
facet normal -0.117810 -0.860486 -0.495666
outer loop
vertex -0.820192 -1.616760 0.155428
vertex -0.820191 -1.600660 0.127478
vertex -0.130566 -1.600660 -0.036432
endloop
endfacet
facet normal -0.244759 -0.339377 -0.908249
outer loop
vertex -0.820192 -1.616760 0.155428
vertex -0.130566 -1.600660 -0.036432
vertex -0.130566 -1.675461 -0.008482
endloop
endfacet
facet normal -0.188808 0.850937 -0.490161
outer loop
vertex -0.820191 -1.600660 0.127478
vertex -0.820191 -1.584560 0.155428
vertex -0.130566 -1.525961 -0.008482
endloop
endfacet
facet normal -0.217289 0.342068 -0.914207
outer loop
vertex -0.820191 -1.600660 0.127478
vertex -0.130566 -1.525961 -0.008482
vertex -0.130566 -1.600660 -0.036432
endloop
endfacet
facet normal 0.158142 -0.000000 0.987416
outer loop
vertex 1.248680 -1.504560 0.280558
vertex 1.248680 -1.600660 0.280558
vertex 1.938310 -1.600660 0.170108
endloop
endfacet
facet normal 0.158143 0.000000 0.987416
outer loop
vertex 1.248680 -1.504560 0.280558
vertex 1.938310 -1.600660 0.170108
vertex 1.938310 -1.551761 0.170108
endloop
endfacet
facet normal 0.158142 0.000000 0.987416
outer loop
vertex 1.248680 -1.600660 0.280558
vertex 1.248680 -1.696860 0.280558
vertex 1.938310 -1.649660 0.170108
endloop
endfacet
facet normal 0.158143 0.000000 0.987416
outer loop
vertex 1.248680 -1.600660 0.280558
vertex 1.938310 -1.649660 0.170108
vertex 1.938310 -1.600660 0.170108
endloop
endfacet
facet normal 0.145124 0.141586 0.979231
outer loop
vertex 2.043110 -6.121461 0.843767
vertex 2.114730 -6.304561 0.859627
vertex 2.829090 -6.304561 0.753757
endloop
endfacet
facet normal 0.144786 0.139996 0.979509
outer loop
vertex 2.043110 -6.121461 0.843767
vertex 2.829090 -6.304561 0.753757
vertex 2.769830 -6.121461 0.736347
endloop
endfacet
facet normal 0.144756 0.141461 0.979303
outer loop
vertex -1.905730 3.972780 -0.030651
vertex 2.043110 -6.121461 0.843767
vertex 2.769830 -6.121461 0.736347
endloop
endfacet
facet normal 0.134085 0.136685 0.981498
outer loop
vertex -1.905730 3.972780 -0.030651
vertex 2.769830 -6.121461 0.736347
vertex -0.497662 3.972780 -0.223011
endloop
endfacet
facet normal 0.146456 -0.046554 -0.988121
outer loop
vertex 2.769830 -6.121461 0.736347
vertex 2.829090 -6.304561 0.753757
vertex 2.114730 -6.304561 0.647877
endloop
endfacet
facet normal 0.146077 -0.045140 -0.988243
outer loop
vertex 2.769830 -6.121461 0.736347
vertex 2.114730 -6.304561 0.647877
vertex 2.043110 -6.121461 0.628927
endloop
endfacet
facet normal 0.146067 -0.046635 -0.988175
outer loop
vertex -0.497662 3.972780 -0.223011
vertex 2.769830 -6.121461 0.736347
vertex 2.043110 -6.121461 0.628927
endloop
endfacet
facet normal 0.135197 -0.049490 -0.989582
outer loop
vertex -0.497662 3.972780 -0.223011
vertex 2.043110 -6.121461 0.628927
vertex -1.905730 3.972780 -0.415381
endloop
endfacet
facet normal -0.450875 -0.678801 -0.579604
outer loop
vertex 1.250000 -6.121461 0.628927
vertex 1.501300 -6.304561 0.647877
vertex 1.365191 -6.304561 0.753757
endloop
endfacet
facet normal -0.452198 -0.678871 -0.578490
outer loop
vertex 1.250000 -6.121461 0.628927
vertex 1.365191 -6.304561 0.753757
vertex 1.112581 -6.121461 0.736347
endloop
endfacet
facet normal -0.571805 -0.371417 -0.731497
outer loop
vertex -3.970770 3.972780 -0.415381
vertex 1.250000 -6.121461 0.628927
vertex 1.112581 -6.121461 0.736347
endloop
endfacet
facet normal -0.621689 -0.390543 -0.678955
outer loop
vertex -3.970770 3.972780 -0.415381
vertex 1.112581 -6.121461 0.736347
vertex -4.180860 3.972780 -0.223011
endloop
endfacet
facet normal -0.485995 -0.611083 0.624809
outer loop
vertex 1.112581 -6.121461 0.736347
vertex 1.365191 -6.304561 0.753757
vertex 1.501300 -6.304561 0.859627
endloop
endfacet
facet normal -0.486312 -0.613563 0.622127
outer loop
vertex 1.112581 -6.121461 0.736347
vertex 1.501300 -6.304561 0.859627
vertex 1.250000 -6.121461 0.843767
endloop
endfacet
facet normal -0.597741 -0.240782 0.764676
outer loop
vertex -4.180860 3.972780 -0.223011
vertex 1.112581 -6.121461 0.736347
vertex 1.250000 -6.121461 0.843767
endloop
endfacet
facet normal -0.649375 -0.274421 0.709229
outer loop
vertex -4.180860 3.972780 -0.223011
vertex 1.250000 -6.121461 0.843767
vertex -3.970770 3.972780 -0.030651
endloop
endfacet
facet normal 0.000000 -0.102945 -0.994687
outer loop
vertex 2.043110 -6.121461 0.628927
vertex 2.114730 -6.304561 0.647877
vertex 1.501300 -6.304561 0.647877
endloop
endfacet
facet normal 0.000000 -0.102946 -0.994687
outer loop
vertex 2.043110 -6.121461 0.628927
vertex 1.501300 -6.304561 0.647877
vertex 1.250000 -6.121461 0.628927
endloop
endfacet
facet normal 0.000000 -0.102907 -0.994691
outer loop
vertex -1.905730 3.972780 -0.415381
vertex 2.043110 -6.121461 0.628927
vertex 1.250000 -6.121461 0.628927
endloop
endfacet
facet normal 0.000000 -0.102907 -0.994691
outer loop
vertex -1.905730 3.972780 -0.415381
vertex 1.250000 -6.121461 0.628927
vertex -3.970770 3.972780 -0.415381
endloop
endfacet
facet normal 0.000000 0.086296 0.996270
outer loop
vertex 1.250000 -6.121461 0.843767
vertex 1.501300 -6.304561 0.859627
vertex 2.114730 -6.304561 0.859627
endloop
endfacet
facet normal 0.000000 0.086296 0.996270
outer loop
vertex 1.250000 -6.121461 0.843767
vertex 2.114730 -6.304561 0.859627
vertex 2.043110 -6.121461 0.843767
endloop
endfacet
facet normal 0.000000 0.086302 0.996269
outer loop
vertex -3.970770 3.972780 -0.030651
vertex 1.250000 -6.121461 0.843767
vertex 2.043110 -6.121461 0.843767
endloop
endfacet
facet normal 0.000000 0.086302 0.996269
outer loop
vertex -3.970770 3.972780 -0.030651
vertex 2.043110 -6.121461 0.843767
vertex -1.905730 3.972780 -0.030651
endloop
endfacet
facet normal 0.030072 -0.297838 0.954143
outer loop
vertex 2.114730 -6.304561 0.859627
vertex 2.192880 -6.504260 0.794827
vertex 2.893760 -6.504260 0.772737
endloop
endfacet
facet normal 0.145156 0.140095 0.979440
outer loop
vertex 2.114730 -6.304561 0.859627
vertex 2.893760 -6.504260 0.772737
vertex 2.829090 -6.304561 0.753757
endloop
endfacet
facet normal 0.031375 -0.084495 -0.995930
outer loop
vertex 2.829090 -6.304561 0.753757
vertex 2.893760 -6.504260 0.772737
vertex 2.192880 -6.504260 0.750657
endloop
endfacet
facet normal 0.133614 -0.411680 -0.901480
outer loop
vertex 2.829090 -6.304561 0.753757
vertex 2.192880 -6.504260 0.750657
vertex 2.114730 -6.304561 0.647877
endloop
endfacet
facet normal -0.115636 -0.699428 -0.705287
outer loop
vertex 1.501300 -6.304561 0.647877
vertex 2.082310 -6.504260 0.750657
vertex 1.947640 -6.504260 0.772737
endloop
endfacet
facet normal -0.290045 -0.881392 -0.372857
outer loop
vertex 1.501300 -6.304561 0.647877
vertex 1.947640 -6.504260 0.772737
vertex 1.365191 -6.304561 0.753757
endloop
endfacet
facet normal -0.151397 -0.353849 0.922968
outer loop
vertex 1.365191 -6.304561 0.753757
vertex 1.947640 -6.504260 0.772737
vertex 2.082310 -6.504260 0.794827
endloop
endfacet
facet normal -0.269984 -0.898126 0.347101
outer loop
vertex 1.365191 -6.304561 0.753757
vertex 2.082310 -6.504260 0.794827
vertex 1.501300 -6.304561 0.859627
endloop
endfacet
facet normal 0.000000 -0.457620 -0.889148
outer loop
vertex 2.114730 -6.304561 0.647877
vertex 2.192880 -6.504260 0.750657
vertex 2.082310 -6.504260 0.750657
endloop
endfacet
facet normal 0.000000 -0.457621 -0.889147
outer loop
vertex 2.114730 -6.304561 0.647877
vertex 2.082310 -6.504260 0.750657
vertex 1.501300 -6.304561 0.647877
endloop
endfacet
facet normal 0.000000 -0.308645 0.951177
outer loop
vertex 1.501300 -6.304561 0.859627
vertex 2.082310 -6.504260 0.794827
vertex 2.192880 -6.504260 0.794827
endloop
endfacet
facet normal 0.000000 -0.308646 0.951177
outer loop
vertex 1.501300 -6.304561 0.859627
vertex 2.192880 -6.504260 0.794827
vertex 2.114730 -6.304561 0.859627
endloop
endfacet
facet normal 0.000000 -1.000000 -0.000342
outer loop
vertex 2.893760 -6.504260 0.772737
vertex 2.192880 -6.504260 0.794827
vertex 2.082310 -6.504260 0.794827
endloop
endfacet
facet normal 0.000000 -1.000000 0.000006
outer loop
vertex 2.893760 -6.504260 0.772737
vertex 2.082310 -6.504260 0.794827
vertex 1.947640 -6.504260 0.772737
endloop
endfacet
facet normal 0.000000 -1.000000 0.000046
outer loop
vertex 2.192880 -6.504260 0.750657
vertex 2.893760 -6.504260 0.772737
vertex 1.947640 -6.504260 0.772737
endloop
endfacet
facet normal 0.000000 -1.000000 0.000000
outer loop
vertex 2.192880 -6.504260 0.750657
vertex 1.947640 -6.504260 0.772737
vertex 2.082310 -6.504260 0.750657
endloop
endfacet
facet normal -0.650251 -0.269836 0.710185
outer loop
vertex -4.180860 3.972780 -0.223011
vertex -3.970770 3.972780 -0.030651
vertex -6.259009 8.443589 -0.427090
endloop
endfacet
facet normal -0.669476 -0.279779 0.688132
outer loop
vertex -4.180860 3.972780 -0.223011
vertex -6.259009 8.443589 -0.427090
vertex -6.599099 8.443589 -0.757960
endloop
endfacet
facet normal -0.615024 -0.413032 -0.671677
outer loop
vertex -3.970770 3.972780 -0.415381
vertex -4.180860 3.972780 -0.223011
vertex -6.599099 8.443589 -0.757960
endloop
endfacet
facet normal -0.679617 -0.444267 -0.583737
outer loop
vertex -3.970770 3.972780 -0.415381
vertex -6.599099 8.443589 -0.757960
vertex -6.259009 8.443589 -1.153910
endloop
endfacet
facet normal 0.121072 0.122125 0.985103
outer loop
vertex -0.497662 8.443589 -0.757960
vertex -3.189780 8.443589 -0.427090
vertex -1.905730 3.972780 -0.030651
endloop
endfacet
facet normal 0.134414 0.117728 0.983907
outer loop
vertex -0.497662 8.443589 -0.757960
vertex -1.905730 3.972780 -0.030651
vertex -0.497662 3.972780 -0.223011
endloop
endfacet
facet normal 0.144503 -0.117559 -0.982496
outer loop
vertex -3.189780 8.443589 -1.153910
vertex -0.497662 8.443589 -0.757960
vertex -0.497662 3.972780 -0.223011
endloop
endfacet
facet normal 0.134321 -0.123831 -0.983170
outer loop
vertex -3.189780 8.443589 -1.153910
vertex -0.497662 3.972780 -0.223011
vertex -1.905730 3.972780 -0.415381
endloop
endfacet
facet normal 0.000000 0.088326 0.996092
outer loop
vertex -3.189780 8.443589 -0.427090
vertex -6.259009 8.443589 -0.427090
vertex -3.970770 3.972780 -0.030651
endloop
endfacet
facet normal 0.000000 0.088326 0.996092
outer loop
vertex -3.189780 8.443589 -0.427090
vertex -3.970770 3.972780 -0.030651
vertex -1.905730 3.972780 -0.030651
endloop
endfacet
facet normal 0.000000 -0.162981 -0.986629
outer loop
vertex -3.189780 8.443589 -1.153910
vertex -1.905730 3.972780 -0.415381
vertex -3.970770 3.972780 -0.415381
endloop
endfacet
facet normal 0.000000 -0.162980 -0.986629
outer loop
vertex -3.189780 8.443589 -1.153910
vertex -3.970770 3.972780 -0.415381
vertex -6.259009 8.443589 -1.153910
endloop
endfacet
endsolid Exported from Blender-3.3.3
